<svg width="108" height="108" viewBox="0 0 108 108" fill="none" xmlns="http://www.w3.org/2000/svg">
<g clip-path="url(#clip0_2056_419)" filter="url(#filter0_d_2056_419)">
<path d="M89.7143 0H18.2857C10.4071 0 4 4.485 4 10V90C4 95.515 10.4071 100 18.2857 100H89.7143C97.5929 100 104 95.515 104 90V10C104 4.485 97.5929 0 89.7143 0ZM18.2857 74.995V15H89.7143L89.7286 74.995H18.2857Z" fill="#787B86"/>
<path d="M40.668 49.9999C48.268 49.9999 54.0013 44.2666 54.0013 36.6666C54.0013 29.0666 48.268 23.3332 40.668 23.3332C33.068 23.3332 27.3347 29.0666 27.3347 36.6666C27.3347 44.2666 33.068 49.9999 40.668 49.9999ZM40.668 29.9999C44.5947 29.9999 47.3347 32.7399 47.3347 36.6666C47.3347 40.5932 44.5947 43.3332 40.668 43.3332C36.7413 43.3332 34.0013 40.5932 34.0013 36.6666C34.0013 32.7399 36.7413 29.9999 40.668 29.9999ZM44.0013 53.3332H37.3347C28.1447 53.3332 20.668 60.8099 20.668 69.9999V73.3332H27.3347V69.9999C27.3347 64.4866 31.8213 59.9999 37.3347 59.9999H44.0013C49.5147 59.9999 54.0013 64.4866 54.0013 69.9999V73.3332H60.668V69.9999C60.668 60.8099 53.1913 53.3332 44.0013 53.3332ZM75.2147 18.7866L70.5013 23.4999C74.9047 27.9099 77.3347 33.7699 77.3347 39.9999C77.3347 46.2299 74.9047 52.0899 70.5013 56.4999L75.2147 61.2132C80.8813 55.5432 84.0013 48.0099 84.0013 39.9999C84.0013 31.9899 80.8813 24.4566 75.2147 18.7866Z" fill="#787B86"/>
<path d="M65.7836 28.2135L61.0703 32.9335C62.9603 34.8169 64.0003 37.3269 64.0003 40.0002C64.0003 42.6735 62.9603 45.1835 61.0703 47.0669L65.7836 51.7869C68.9303 48.6402 70.667 44.4569 70.667 40.0002C70.667 35.5435 68.9303 31.3602 65.7836 28.2135Z" fill="#787B86"/>
</g>
<defs>
<filter id="filter0_d_2056_419" x="0" y="0" width="108" height="108" filterUnits="userSpaceOnUse" color-interpolation-filters="sRGB">
<feFlood flood-opacity="0" result="BackgroundImageFix"/>
<feColorMatrix in="SourceAlpha" type="matrix" values="0 0 0 0 0 0 0 0 0 0 0 0 0 0 0 0 0 0 127 0" result="hardAlpha"/>
<feOffset dy="4"/>
<feGaussianBlur stdDeviation="2"/>
<feComposite in2="hardAlpha" operator="out"/>
<feColorMatrix type="matrix" values="0 0 0 0 0 0 0 0 0 0 0 0 0 0 0 0 0 0 0.25 0"/>
<feBlend mode="normal" in2="BackgroundImageFix" result="effect1_dropShadow_2056_419"/>
<feBlend mode="normal" in="SourceGraphic" in2="effect1_dropShadow_2056_419" result="shape"/>
</filter>
<clipPath id="clip0_2056_419">
<rect width="100" height="100" fill="white" transform="translate(4)"/>
</clipPath>
</defs>
</svg>
