<svg width="100" height="100" viewBox="0 0 100 100" fill="none" xmlns="http://www.w3.org/2000/svg">
<g clip-path="url(#clip0_2056_425)">
<path d="M88.8889 0.980408H11.1111C4.98333 0.980408 0 5.37742 0 10.7844V89.2158C0 94.6226 4.98333 99.0197 11.1111 99.0197H88.8889C95.0167 99.0197 100 94.6226 100 89.2158V10.7844C100 5.37742 95.0167 0.980408 88.8889 0.980408ZM11.1111 89.2158V10.7844H88.8889L88.8944 89.2158H11.1111Z" fill="#787B86"/>
<path d="M22.2227 50H33.3337V59.8039H22.2227V50ZM22.2227 69.6079H33.3337V79.4118H22.2227V69.6079ZM44.4449 50H55.556V59.8039H44.4449V50ZM22.2227 20.5883H77.7783V40.1961H22.2227V20.5883ZM44.4449 69.6079H55.556V79.4118H44.4449V69.6079ZM66.6671 50H77.7783V79.4118H66.6671V50Z" fill="#787B86"/>
</g>
<defs>
<clipPath id="clip0_2056_425">
<rect width="100" height="100" fill="white"/>
</clipPath>
</defs>
</svg>
