<svg width="250" height="250" viewBox="0 0 250 250" fill="none" xmlns="http://www.w3.org/2000/svg">
<circle cx="125" cy="125" r="125" fill="#787B86"/>
<path d="M168.75 62.5H81.2499C74.3562 62.5 68.75 68.1062 68.75 75V175C68.75 181.894 74.3562 187.5 81.2499 187.5H168.75C175.644 187.5 181.25 181.894 181.25 175V75C181.25 68.1062 175.644 62.5 168.75 62.5ZM81.2499 175V75H168.75L168.756 175H81.2499Z" fill="#EDF2F7"/>
<path d="M93.75 125H106.25V137.5H93.75V125ZM93.75 150H106.25V162.5H93.75V150ZM118.75 125H131.25V137.5H118.75V125ZM93.75 87.5H156.25V112.5H93.75V87.5ZM118.75 150H131.25V162.5H118.75V150ZM143.75 125H156.25V162.5H143.75V125Z" fill="#EDF2F7"/>
</svg>
