<svg width="100" height="100" viewBox="0 0 100 100" fill="none" xmlns="http://www.w3.org/2000/svg">
<g clip-path="url(#clip0_2056_428)">
<path d="M50 0C22.4278 0 0 20.185 0 45C0 61.64 10.1111 76.16 25.0722 83.95L13.5889 90.84C12.5972 91.4351 11.8445 92.3015 11.4419 93.3113C11.0393 94.321 11.0082 95.4205 11.3532 96.4473C11.6983 97.4741 12.4011 98.3739 13.3579 99.0136C14.3147 99.6533 15.4747 99.9992 16.6667 100H83.3333C84.5258 100 85.6866 99.6552 86.6443 99.0158C87.602 98.3765 88.3058 97.4768 88.6515 96.4497C88.9972 95.4226 88.9666 94.3227 88.5641 93.3124C88.1617 92.3022 87.4088 91.4354 86.4167 90.84L74.9333 83.95C89.8889 76.16 100 61.64 100 45C100 20.185 77.5722 0 50 0ZM50 80C28.5611 80 11.1111 64.295 11.1111 45C11.1111 25.705 28.5611 10 50 10C71.4389 10 88.8889 25.705 88.8889 45C88.8889 64.295 71.4389 80 50 80Z" fill="#787B86"/>
<path d="M49.9994 20C34.6828 20 22.2217 31.215 22.2217 45C22.2217 58.785 34.6828 70 49.9994 70C65.3161 70 77.7772 58.785 77.7772 45C77.7772 31.215 65.3161 20 49.9994 20ZM41.6661 45C40.5714 44.9997 39.4875 44.8053 38.4762 44.4279C37.465 44.0506 36.5462 43.4977 35.7724 42.8008C34.2096 41.3933 33.332 39.4848 33.3328 37.495C33.3331 36.5098 33.5491 35.5342 33.9684 34.6241C34.3876 33.714 35.002 32.8871 35.7763 32.1907C37.3402 30.7841 39.4608 29.9943 41.6717 29.995C43.8825 29.9957 46.0026 30.7867 47.5654 32.1942C49.1282 33.6017 50.0057 35.5102 50.005 37.5C50.0043 39.4898 49.1253 41.3978 47.5614 42.8043C45.9976 44.2109 43.877 45.0007 41.6661 45Z" fill="#787B86"/>
</g>
<defs>
<clipPath id="clip0_2056_428">
<rect width="100" height="100" fill="white"/>
</clipPath>
</defs>
</svg>
