<svg width="250" height="250" viewBox="0 0 250 250" fill="none" xmlns="http://www.w3.org/2000/svg">
<circle cx="125" cy="125" r="125" fill="#787B86"/>
<g clip-path="url(#clip0_3179_6)">
<path d="M125 50C83.6417 50 50 80.2775 50 117.5C50 142.46 65.1667 164.24 87.6083 175.925L70.3833 186.26C68.8958 187.153 67.7668 188.452 67.1629 189.967C66.559 191.482 66.5123 193.131 67.0298 194.671C67.5474 196.211 68.6016 197.561 70.0368 198.52C71.472 199.48 73.2121 199.999 75.0001 200H175C176.789 200 178.53 199.483 179.966 198.524C181.403 197.565 182.459 196.215 182.977 194.675C183.496 193.134 183.45 191.484 182.846 189.969C182.243 188.453 181.113 187.153 179.625 186.26L162.4 175.925C184.833 164.24 200 142.46 200 117.5C200 80.2775 166.358 50 125 50ZM125 170C92.8417 170 66.6667 146.443 66.6667 117.5C66.6667 88.5575 92.8417 65 125 65C157.158 65 183.333 88.5575 183.333 117.5C183.333 146.443 157.158 170 125 170Z" fill="#EDF2F7"/>
<path d="M125.001 80C102.026 80 83.334 96.8225 83.334 117.5C83.334 138.177 102.026 155 125.001 155C147.976 155 166.667 138.177 166.667 117.5C166.667 96.8225 147.976 80 125.001 80ZM112.501 117.5C110.859 117.5 109.233 117.208 107.716 116.642C106.199 116.076 104.821 115.247 103.66 114.201C101.316 112.09 99.9994 109.227 100.001 106.242C100.001 104.765 100.325 103.301 100.954 101.936C101.583 100.571 102.504 99.3307 103.666 98.2861C106.012 96.1762 109.193 94.9915 112.509 94.9925C115.825 94.9936 119.005 96.18 121.35 98.2913C123.694 100.403 125.01 103.265 125.009 106.25C125.008 109.235 123.689 112.097 121.344 114.206C118.998 116.316 115.817 117.501 112.501 117.5Z" fill="#EDF2F7"/>
</g>
<defs>
<clipPath id="clip0_3179_6">
<rect width="150" height="150" fill="white" transform="translate(50 50)"/>
</clipPath>
</defs>
</svg>
