<svg width="100" height="100" viewBox="0 0 100 100" fill="none" xmlns="http://www.w3.org/2000/svg">
<g clip-path="url(#clip0_1833_2)">
<path d="M52.949 6.42548C53.6693 1.90098 56.632 -0.866368 59.5625 0.245758C62.4931 1.35788 64.2853 5.93214 63.565 10.4569L50.1879 93.5745C49.4674 98.0993 46.5049 100.866 43.5742 99.7542C40.6435 98.6421 38.8513 94.0678 39.5717 89.543L52.949 6.42548ZM29.8142 74.077C32.083 77.1429 32.3133 82.4704 30.3275 85.9733C28.3416 89.4758 24.891 89.8313 22.6224 86.7654L1.86404 58.6834C-0.40452 55.6175 -0.634793 50.2899 1.35114 46.7874C1.52165 46.4867 1.70271 46.2108 1.89157 45.9581L22.6224 17.9134C24.891 14.8472 28.3416 15.2028 30.3275 18.7053C32.3133 22.2081 32.083 27.5357 29.8142 30.6016L13.7459 52.3393L29.8142 74.077ZM77.3775 86.7654C75.109 89.8313 71.6584 89.4758 69.6724 85.9733C67.6867 82.4704 67.917 77.1429 70.1857 74.077L86.2541 52.3393L70.1857 30.6016C67.917 27.5357 67.6867 22.2081 69.6724 18.7053C71.6584 15.2028 75.109 14.8472 77.3775 17.9134L98.1084 45.9581C98.3006 46.2151 98.4812 46.4922 98.6488 46.7874C100.635 50.2899 100.404 55.6175 98.1359 58.6834L77.3775 86.7654Z" fill="#747E99"/>
</g>
<defs>
<clipPath id="clip0_1833_2">
<rect width="100" height="100" fill="white"/>
</clipPath>
</defs>
</svg>
