<svg width="250" height="250" viewBox="0 0 250 250" fill="none" xmlns="http://www.w3.org/2000/svg">
<circle cx="125" cy="125" r="125" fill="#787B86"/>
<path d="M169.118 97.3682C169.118 109.21 164.706 125 143.529 131.316C149.706 117.895 150.588 104.474 146.176 91.8419C140 75.263 119.706 62.6314 105.588 55.5261C102.059 53.1577 95.8823 56.3156 96.7648 61.0524C96.7648 69.7367 94.1177 82.3682 79.1177 95.7893C59.7059 113.158 50 131.316 50 148.684C50 171.579 67.6471 200 102.941 200C67.6471 168.421 94.1177 140.789 94.1177 140.789C101.176 187.368 138.235 200 155.882 200C170.882 200 200 190.526 200 149.474C200 125 188.529 106.052 178.824 94.9998C176.176 91.0524 170 93.4209 169.118 97.3682Z" fill="#EDF2F7"/>
</svg>
