<svg width="100" height="100" viewBox="0 0 100 100" fill="none" xmlns="http://www.w3.org/2000/svg">
<g clip-path="url(#clip0_2056_423)">
<path d="M79.4118 29.8242C79.4118 37.9215 76.4706 48.7177 62.3529 53.0361C66.4706 43.8594 67.0588 34.6826 64.1176 26.0456C60 14.7096 46.4706 6.07259 37.0588 1.21428C34.7059 -0.405146 30.5882 1.7541 31.1765 4.99296C31.1765 10.9309 29.4118 19.5678 19.4118 28.7446C6.47059 40.6205 0 53.0361 0 64.912C0 80.5665 11.7647 99.9997 35.2941 99.9997C11.7647 78.4073 29.4118 59.5139 29.4118 59.5139C34.1176 91.3627 58.8235 99.9997 70.5882 99.9997C80.5882 99.9997 100 93.522 100 65.4518C100 48.7177 92.3529 35.7622 85.8824 28.2048C84.1176 25.5058 80 27.1253 79.4118 29.8242Z" fill="#787B86"/>
</g>
<defs>
<clipPath id="clip0_2056_423">
<rect width="100" height="100" fill="white"/>
</clipPath>
</defs>
</svg>
