<svg width="100" height="100" viewBox="0 0 100 100" fill="none" xmlns="http://www.w3.org/2000/svg">
<path d="M83.334 33.3334H33.334L38.384 20.7084C38.8063 19.6537 39.0084 18.5238 38.978 17.3881C38.9477 16.2525 38.6854 15.135 38.2074 14.1044C37.7294 13.0738 37.0456 12.1519 36.1983 11.3952C35.3509 10.6385 34.3577 10.063 33.2798 9.70419L31.8632 9.23336C31.0682 8.96781 30.2116 8.94865 29.4057 9.17841C28.5997 9.40816 27.8819 9.87609 27.3465 10.5209L9.29648 32.175C8.67412 32.9243 8.33361 33.8677 8.33398 34.8417V79.1667C8.33398 81.3768 9.21196 83.4964 10.7748 85.0592C12.3376 86.622 14.4572 87.5 16.6673 87.5H46.709C48.7591 87.4992 50.7371 86.7428 52.2645 85.3752C53.7919 84.0077 54.7616 82.1251 54.9882 80.0875L58.334 50H83.334C85.5441 50 87.6637 49.122 89.2265 47.5592C90.7893 45.9964 91.6673 43.8768 91.6673 41.6667C91.6673 39.4565 90.7893 37.3369 89.2265 35.7741C87.6637 34.2113 85.5441 33.3334 83.334 33.3334Z" fill="#747E99"/>
</svg>
