<svg width="100" height="100" viewBox="0 0 100 100" fill="none" xmlns="http://www.w3.org/2000/svg">
<path d="M47.3622 23.0368C40.9077 23.0368 34.7175 25.6009 30.1535 30.1649C25.5894 34.729 23.0254 40.9191 23.0254 47.3737C23.0254 53.8282 25.5894 60.0184 30.1535 64.5824C34.7175 69.1465 40.9077 71.7105 47.3622 71.7105C53.8168 71.7105 60.0069 69.1465 64.571 64.5824C69.135 60.0184 71.6991 53.8282 71.6991 47.3737C71.6991 40.9191 69.135 34.729 64.571 30.1649C60.0069 25.6009 53.8168 23.0368 47.3622 23.0368ZM47.3622 63.1789C43.169 63.1789 39.1476 61.5132 36.1825 58.5481C33.2175 55.5831 31.5517 51.5616 31.5517 47.3684C31.5517 43.1752 33.2175 39.1537 36.1825 36.1887C39.1476 33.2236 43.169 31.5579 47.3622 31.5579C51.5554 31.5579 55.5769 33.2236 58.542 36.1887C61.507 39.1537 63.1728 43.1752 63.1728 47.3684C63.1728 51.5616 61.507 55.5831 58.542 58.5481C55.5769 61.5132 51.5554 63.1789 47.3622 63.1789Z" fill="#584B4F"/>
<path d="M72.6639 27.8158C75.7974 27.8158 78.3376 25.2756 78.3376 22.1421C78.3376 19.0086 75.7974 16.4684 72.6639 16.4684C69.5304 16.4684 66.9902 19.0086 66.9902 22.1421C66.9902 25.2756 69.5304 27.8158 72.6639 27.8158Z" fill="#584B4F"/>
<path d="M92.2782 16.3737C91.0598 13.2273 89.1978 10.3699 86.8115 7.98453C84.4252 5.59914 81.5672 3.73827 78.4203 2.52106C74.7378 1.13873 70.8475 0.391275 66.915 0.310531C61.8466 0.0894788 60.2413 0.0263214 47.3887 0.0263214C34.5361 0.0263214 32.8887 0.0263209 27.8624 0.310531C23.9329 0.387146 20.0453 1.13475 16.3677 2.52106C13.22 3.73685 10.3612 5.59722 7.97468 7.98279C5.58821 10.3684 3.72676 13.2264 2.50977 16.3737C1.12716 20.0559 0.381421 23.9465 0.304502 27.879C0.0781866 32.9421 0.00976562 34.5474 0.00976562 47.4053C0.00976562 60.2579 0.00976559 61.8947 0.304502 66.9316C0.38345 70.8684 1.12555 74.7526 2.50977 78.4421C3.73017 81.5882 5.59343 84.4452 7.98048 86.8304C10.3675 89.2156 13.2259 91.0767 16.3729 92.2947C20.0436 93.7326 23.9328 94.5336 27.8729 94.6632C32.9413 94.8842 34.5466 94.9526 47.3992 94.9526C60.2519 94.9526 61.8992 94.9526 66.9256 94.6632C70.8577 94.5832 74.7478 93.8376 78.4308 92.4579C81.5769 91.2378 84.4341 89.3754 86.8201 86.9893C89.2062 84.6033 91.0686 81.7461 92.2887 78.6C93.6729 74.9158 94.415 71.0316 94.494 67.0947C94.7203 62.0316 94.7887 60.4263 94.7887 47.5684C94.7887 34.7105 94.7887 33.079 94.494 28.0421C94.4327 24.0541 93.6831 20.1066 92.2782 16.3737ZM85.8677 66.5421C85.8337 69.5753 85.2801 72.5802 84.2308 75.4263C83.4404 77.473 82.2304 79.3316 80.6786 80.8825C79.1267 82.4335 77.2674 83.6424 75.2203 84.4316C72.4057 85.476 69.4327 86.0297 66.4308 86.0684C61.4308 86.3 60.0203 86.3579 47.1992 86.3579C34.3677 86.3579 33.0571 86.3579 27.9624 86.0684C24.962 86.0317 21.9904 85.478 19.1782 84.4316C17.1239 83.6473 15.2571 82.4405 13.6987 80.8893C12.1402 79.338 10.9247 77.4769 10.1308 75.4263C9.09633 72.6108 8.54298 69.6413 8.49397 66.6421C8.26766 61.6421 8.21503 60.2316 8.21503 47.4105C8.21503 34.5842 8.21503 33.2737 8.49397 28.1737C8.528 25.1422 9.08163 22.1391 10.1308 19.2947C11.7361 15.1421 15.0256 11.8737 19.1782 10.2842C21.9918 9.24285 24.9625 8.68929 27.9624 8.64737C32.9677 8.42106 34.3729 8.3579 47.1992 8.3579C60.0256 8.3579 61.3413 8.3579 66.4308 8.64737C69.433 8.68349 72.4064 9.23722 75.2203 10.2842C77.2673 11.0751 79.1263 12.2853 80.678 13.837C82.2298 15.3887 83.4399 17.2477 84.2308 19.2947C85.2653 22.1103 85.8186 25.0798 85.8677 28.079C86.094 33.0842 86.1519 34.4895 86.1519 47.3158C86.1519 60.1368 86.1519 61.5158 85.9256 66.5474H85.8677V66.5421Z" fill="#584B4F"/>
</svg>
