<svg width="30" height="30" viewBox="0 0 30 30" fill="none" xmlns="http://www.w3.org/2000/svg">
<g clip-path="url(#clip0_3026_4)">
<path d="M4.03594 7.49521C5.92406 7.49521 7.45469 5.96459 7.45469 4.07646C7.45469 2.18834 5.92406 0.657715 4.03594 0.657715C2.14781 0.657715 0.617188 2.18834 0.617188 4.07646C0.617188 5.96459 2.14781 7.49521 4.03594 7.49521Z" fill="#584B4F"/>
<path d="M10.6828 10.0859V29.0531H16.5719V19.6734C16.5719 17.1984 17.0375 14.8016 20.1062 14.8016C23.1328 14.8016 23.1703 17.6312 23.1703 19.8297V29.0547H29.0625V18.6531C29.0625 13.5438 27.9625 9.61719 21.9906 9.61719C19.1234 9.61719 17.2016 11.1906 16.4156 12.6797H16.3359V10.0859H10.6828ZM1.08594 10.0859H6.98437V29.0531H1.08594V10.0859Z" fill="#584B4F"/>
</g>
<defs>
<clipPath id="clip0_3026_4">
<rect width="30" height="30" fill="white"/>
</clipPath>
</defs>
</svg>
