<svg width="100" height="100" viewBox="0 0 100 100" fill="none" xmlns="http://www.w3.org/2000/svg">
<g clip-path="url(#clip0_2131_8)">
<mask id="mask0_2131_8" style="mask-type:luminance" maskUnits="userSpaceOnUse" x="0" y="0" width="100" height="100">
<path d="M100 0H0V100H100V0Z" fill="white"/>
</mask>
<g mask="url(#mask0_2131_8)">
<path d="M13.4531 24.984C19.7469 24.984 24.849 19.882 24.849 13.5882C24.849 7.29447 19.7469 2.19238 13.4531 2.19238C7.15937 2.19238 2.0573 7.29447 2.0573 13.5882C2.0573 19.882 7.15937 24.984 13.4531 24.984Z" fill="#584B4F"/>
<path d="M35.6093 33.6196V96.8436H55.2397V65.578C55.2397 57.328 56.7917 49.3386 67.0207 49.3386C77.1093 49.3386 77.2343 58.7706 77.2343 66.099V96.849H96.875V62.1769C96.875 45.1459 93.2083 32.0573 73.302 32.0573C63.7447 32.0573 57.3387 37.3019 54.7187 42.2656H54.453V33.6196H35.6093ZM3.6198 33.6196H23.2812V96.8436H3.6198V33.6196Z" fill="#584B4F"/>
</g>
</g>
<defs>
<clipPath id="clip0_2131_8">
<rect width="100" height="100" fill="white"/>
</clipPath>
</defs>
</svg>
