<svg width="100" height="100" viewBox="0 0 100 100" fill="none" xmlns="http://www.w3.org/2000/svg">
<path d="M80.5551 10C69.8329 10 61.1107 17.85 61.1107 27.5C61.1107 35.27 66.8051 41.795 74.6107 44.075C73.7996 48.735 71.5718 52.575 67.7773 55.69C56.9662 64.555 37.0718 65.365 27.7773 65.225V34.185C35.7773 32.015 41.6662 25.4 41.6662 17.5C41.6662 7.85 32.944 0 22.2218 0C11.4996 0 2.77734 7.85 2.77734 17.5C2.77734 25.4 8.66623 32.015 16.6662 34.185V65.815C8.66623 67.985 2.77734 74.6 2.77734 82.5C2.77734 92.15 11.4996 100 22.2218 100C32.944 100 41.6662 92.15 41.6662 82.5C41.6662 79.745 40.8885 77.175 39.6273 74.855C51.0718 73.925 65.4996 71.07 75.2329 63.105C81.3273 58.12 84.8496 51.785 85.8107 44.265C93.9718 42.19 99.9996 35.5 99.9996 27.5C99.9996 17.85 91.2773 10 80.5551 10ZM13.8885 17.5C13.8885 13.365 17.6273 10 22.2218 10C26.8162 10 30.5551 13.365 30.5551 17.5C30.5551 21.635 26.8162 25 22.2218 25C17.6273 25 13.8885 21.635 13.8885 17.5ZM22.2218 90C17.6273 90 13.8885 86.635 13.8885 82.5C13.8912 80.5281 14.7567 78.6365 16.2977 77.2347C17.8386 75.8329 19.9309 75.0337 22.1218 75.01L22.844 75.06C23.934 75.0968 25.0052 75.3264 25.9966 75.7358C26.988 76.1451 27.88 76.7262 28.6219 77.4459C29.3637 78.1656 29.9408 79.0097 30.3202 79.93C30.6995 80.8504 30.8738 81.829 30.8329 82.81C30.792 83.791 30.5369 84.7551 30.082 85.6473C29.6272 86.5396 28.9815 87.3424 28.1819 88.0101C27.3823 88.6777 26.4444 89.1971 25.4217 89.5385C24.3991 89.88 23.3118 90.0368 22.2218 90ZM80.5551 35C75.9607 35 72.2218 31.635 72.2218 27.5C72.2218 23.365 75.9607 20 80.5551 20C85.1496 20 88.8885 23.365 88.8885 27.5C88.8885 31.635 85.1496 35 80.5551 35Z" fill="#787B86"/>
</svg>
