<svg width="250" height="250" viewBox="0 0 250 250" fill="none" xmlns="http://www.w3.org/2000/svg">
<circle cx="125" cy="125" r="125" fill="#787B86"/>
<path d="M181.833 65C165.749 65 152.666 76.775 152.666 91.25C152.666 102.905 161.208 112.693 172.916 116.113C171.699 123.103 168.358 128.862 162.666 133.535C146.449 146.832 116.608 148.047 102.666 147.837V101.278C114.666 98.0225 123.499 88.1 123.499 76.25C123.499 61.775 110.416 50 94.3327 50C78.2494 50 65.166 61.775 65.166 76.25C65.166 88.1 73.9994 98.0225 85.9993 101.278V148.723C73.9994 151.978 65.166 161.9 65.166 173.75C65.166 188.225 78.2494 200 94.3327 200C110.416 200 123.499 188.225 123.499 173.75C123.499 169.617 122.333 165.763 120.441 162.283C137.608 160.888 159.249 156.605 173.849 144.657C182.991 137.18 188.274 127.677 189.716 116.397C201.958 113.285 210.999 103.25 210.999 91.25C210.999 76.775 197.916 65 181.833 65ZM81.8328 76.25C81.8328 70.0475 87.441 65 94.3327 65C101.224 65 106.833 70.0475 106.833 76.25C106.833 82.4525 101.224 87.5 94.3327 87.5C87.441 87.5 81.8328 82.4525 81.8328 76.25ZM94.3327 185C87.441 185 81.8328 179.953 81.8328 173.75C81.8368 170.792 83.1351 167.955 85.4466 165.852C87.7579 163.749 90.8964 162.551 94.1827 162.515L95.266 162.59C96.901 162.645 98.5078 162.99 99.9949 163.604C101.482 164.218 102.82 165.089 103.933 166.169C105.046 167.248 105.911 168.515 106.48 169.895C107.049 171.276 107.311 172.743 107.249 174.215C107.188 175.686 106.805 177.133 106.123 178.471C105.441 179.809 104.472 181.014 103.273 182.015C102.073 183.017 100.667 183.796 99.1326 184.308C97.5987 184.82 95.9677 185.055 94.3327 185ZM181.833 102.5C174.941 102.5 169.333 97.4525 169.333 91.25C169.333 85.0475 174.941 80 181.833 80C188.724 80 194.333 85.0475 194.333 91.25C194.333 97.4525 188.724 102.5 181.833 102.5Z" fill="#EDF2F7"/>
</svg>
