<svg width="100" height="100" viewBox="0 0 100 100" fill="none" xmlns="http://www.w3.org/2000/svg">
<g clip-path="url(#clip0_1807_24)">
<path fill-rule="evenodd" clip-rule="evenodd" d="M74.8291 91.0473L76.4486 80.3632L75.3337 78.2517C74.8291 76.9848 74.7233 75.8728 75 74.9156C75.6022 72.8463 76.8555 73.2264 78.0273 73.2264C79.2562 73.2264 80.7699 72.8181 81.1523 75.4786C81.2826 76.3654 81.1198 77.2945 80.7617 78.2517L79.6468 80.3632L80.6152 86.7821L87.0361 77.1256L90.3646 77.2663C89.2171 73.2827 87.7604 69.9043 86.0677 66.723C89.2578 68.8626 92.5212 70.9741 94.9382 73.5924C96.4762 75.2534 97.2656 76.5203 97.8923 78.5332C99.2106 82.8266 99.3571 86.6695 99.5524 91.3148L100.016 95.3407H81.9173L81.9336 95.4392H75.0081C74.8535 98.1841 73.9421 99.7748 72.1598 100H50.1953H27.8646C26.0742 99.7607 25.1628 98.1701 25.0163 95.397L25.6348 78.4488C25.8057 74.5355 26.4404 71.4386 27.474 69.0738C28.1576 67.5113 29.0039 66.357 29.9398 65.4561C32.9102 62.5986 39.8438 61.754 42.5374 57.5591L46.6634 78.5473L48.7386 66.0895L47.7214 64.1611C47.2656 63.0068 47.1598 61.9933 47.4203 61.1205C47.9736 59.2342 49.113 59.5862 50.179 59.5862C51.2939 59.5862 52.6693 59.2202 53.0192 61.6413C53.1331 62.4437 52.9867 63.2883 52.6611 64.1611L51.6439 66.0895L53.7191 78.5473L57.4544 57.5591C60.1481 61.754 67.0898 62.5986 70.0521 65.4561C70.988 66.357 71.8425 67.5113 72.5179 69.0738C73.5514 71.4386 74.1862 74.5214 74.3571 78.4488L74.8291 91.0473ZM12.443 67.9195L15.21 81.982L16.6016 73.6346L15.918 72.3395C15.6087 71.5653 15.5436 70.8897 15.7145 70.2984C16.0807 69.0315 16.8457 69.2708 17.5618 69.2708C18.3105 69.2708 19.2301 69.0315 19.4661 70.6504C19.5475 71.1853 19.4417 71.7624 19.2301 72.3395L18.5466 73.6346L19.9382 81.982L22.4447 67.9195C22.8109 68.4826 23.3154 68.9612 23.9095 69.3694C23.7061 70.1154 23.5189 70.9037 23.3561 71.7202C22.9329 73.8457 22.6563 76.2106 22.5423 78.8429H22.5505C22.5505 78.8992 22.5423 78.9696 22.5423 79.0259L21.9401 95.3266H17.5863H1.91243C0.708008 95.1718 0.0976563 94.1019 0 92.2438L0.415039 81.9116C0.528971 79.2934 0.960286 77.2241 1.65202 75.6335C2.10775 74.5918 2.67741 73.8176 3.30404 73.2123C5.28971 71.2979 10.6364 70.7348 12.443 67.9195ZM11.084 47.9871C10.8154 48.0293 10.612 48.1278 10.4655 48.2968C10.3841 48.3953 10.319 48.522 10.2783 48.6627C10.2295 48.8317 10.2132 49.0569 10.2132 49.2962C10.2295 50.0704 10.4655 51.1121 10.9294 52.3086L10.9375 52.3367L12.4837 56.5879C13.1022 58.277 13.7451 60.0085 14.5426 61.2754C15.2995 62.4719 16.2191 63.2883 17.4398 63.2883C18.7581 63.2883 19.7184 62.4437 20.5078 61.1768C21.3298 59.8395 21.9808 58.0096 22.6237 56.1796L24.3571 51.2388C24.707 49.8593 24.8128 49.0287 24.6989 48.6346C24.6257 48.3953 24.3408 48.3249 23.8688 48.3953C23.5677 48.5079 23.2503 48.4094 22.9167 48.1138L23.7874 43.6093C20.6055 43.5389 18.4326 42.5817 15.8529 39.7382C15.0065 38.8091 14.7542 37.7393 13.9079 37.8379C13.265 38.049 12.7279 38.5417 12.3047 39.344C11.8978 40.1042 11.5885 41.1459 11.3851 42.4831L11.8978 47.8745C11.6374 48.156 11.3607 48.1841 11.084 47.9871ZM24.8617 46.6498C25.236 46.8469 25.5127 47.2129 25.6755 47.79C25.9359 48.705 25.8382 50.0704 25.3418 52.013C25.3337 52.0552 25.3255 52.0833 25.3092 52.1256L23.5514 57.1368C22.8678 59.0794 22.1761 61.022 21.2484 62.5282C20.2799 64.1047 19.0837 65.1464 17.4479 65.1323C15.918 65.1323 14.7705 64.1188 13.8265 62.6267C12.9232 61.1909 12.2314 59.3609 11.5804 57.5591L10.0342 53.308C9.45638 51.8159 9.16341 50.4645 9.139 49.3384C9.13086 48.7894 9.17969 48.2967 9.30176 47.8745C9.42383 47.4099 9.611 47.0299 9.87142 46.7343C9.99349 46.5935 10.14 46.4668 10.2946 46.3683C10.1969 44.0879 10.1644 41.2725 10.2295 38.9077C10.262 38.3305 10.3271 37.7534 10.4167 37.1763C10.8154 34.741 11.8001 32.7703 13.029 31.4189C13.4603 30.9403 13.9323 30.5462 14.4368 30.2365C17.4072 28.3784 21.3379 29.3919 23.4456 33.3334C24.3001 34.9381 24.8454 37.0636 24.9593 39.879L24.8617 46.6498ZM40.4053 27.8294C40.0635 27.8998 39.7949 28.0546 39.5996 28.2799C39.4775 28.4206 39.3799 28.6177 39.3229 28.8288C39.2578 29.0822 39.2253 29.406 39.2253 29.772C39.2415 30.9403 39.5996 32.4747 40.2995 34.2483L40.3158 34.2765L42.6188 40.625C43.5384 43.1588 44.4987 45.7348 45.6869 47.607C46.818 49.3947 48.1934 50.6053 50 50.6194C51.9694 50.6335 53.4017 49.3666 54.5736 47.4803C55.8024 45.4955 56.779 42.7506 57.7393 40.0197L60.3271 32.6436C60.848 30.5884 61.0107 29.3497 60.8398 28.7585C60.7341 28.3784 60.2783 28.2939 59.5133 28.4206C59.4564 28.4347 59.3994 28.4347 59.3424 28.4206C59.0251 28.4206 58.6833 28.2799 58.3089 27.9843L59.4727 21.2556C54.7201 21.1571 51.473 19.7213 47.6318 15.4702C46.3704 14.0766 45.988 12.4859 44.7266 12.6408C43.7744 12.9645 42.9688 13.6965 42.334 14.879C41.7236 16.0192 41.2598 17.5676 40.9587 19.5524L41.7806 27.6886C41.2923 28.125 40.8366 28.1532 40.4053 27.8294ZM61.0759 25.8165C61.6374 26.098 62.0443 26.6611 62.2966 27.5197C62.6872 28.8992 62.5407 30.9263 61.8001 33.826C61.7839 33.8823 61.7676 33.9386 61.7513 33.9809L59.1227 41.4696C58.1055 44.3694 57.0719 47.2832 55.6803 49.5214C54.2318 51.8722 52.4495 53.4347 50.0081 53.4206C47.7295 53.4065 46.0124 51.9004 44.6045 49.6763C43.2536 47.5366 42.2282 44.8058 41.2516 42.1171L38.9486 35.7686C38.0941 33.5586 37.6465 31.5175 37.6139 29.8424C37.5977 29.0259 37.679 28.2939 37.8581 27.6464C38.0452 26.9567 38.3219 26.3795 38.7044 25.9431C38.8916 25.7179 39.1032 25.5349 39.3392 25.3942C39.2008 22.0017 39.152 17.8069 39.2415 14.2737C39.2904 13.415 39.388 12.5563 39.5264 11.6977C40.1123 8.05182 41.5934 5.12389 43.4245 3.11094C44.0674 2.40711 44.7754 1.8159 45.5241 1.35137C49.9512 -1.42172 55.8268 0.0985553 58.9681 5.98256C60.2458 8.37558 61.0514 11.5569 61.2223 15.7517L61.0759 25.8165ZM69.0755 60.473L71.11 60.3745L72.7946 60.3041C70.8252 49.817 71.4844 40.1746 76.2288 31.982C77.0345 36.4865 78.833 40.1886 81.901 42.9336C83.3659 44.8198 84.79 47.1002 86.1572 49.7044C86.4014 47.973 85.4736 45.8615 84.3425 43.6937C85.3841 44.5805 86.3444 45.8333 87.0199 48.2264C87.8092 51.0135 87.793 53.3502 87.5407 56.3767C87.4186 57.7844 87.2233 59.0935 86.9385 60.29H89.7461C92.7083 49.3243 90.8285 33.0659 84.7738 26.1684C82.9183 24.0569 81.5837 24.1273 79.4027 24.1413C76.9043 24.1413 75.6348 24.2821 73.4945 26.7174C70.3451 30.321 68.4082 36.5569 67.5944 45.214C67.4398 49.5355 67.334 56.9961 69.0755 60.473Z" fill="#747E99"/>
</g>
<defs>
<clipPath id="clip0_1807_24">
<rect width="100" height="100" fill="white"/>
</clipPath>
</defs>
</svg>
