<svg width="100" height="100" viewBox="0 0 100 100" fill="none" xmlns="http://www.w3.org/2000/svg">
<g clip-path="url(#clip0_1808_27)">
<path fill-rule="evenodd" clip-rule="evenodd" d="M82.666 13.1086L89.8438 20.9738C91.7318 23.0426 91.7318 26.4312 89.8438 28.5001L84.0658 34.8315C85.6608 38.0952 86.8734 41.6087 87.6546 45.3094H95.1416C97.8109 45.3094 100 47.7082 100 50.6331V61.7532C100 64.6781 97.8109 67.0769 95.1416 67.0769H86.971C85.9701 70.6973 84.5378 74.1216 82.7393 77.2606L88.0371 83.0658C89.9251 85.1347 89.9251 88.5233 88.0371 90.5921L80.8594 98.4573C78.9714 100.526 75.8789 100.526 73.9909 98.4573L68.3594 92.2775V78.5001C74.4873 72.7929 78.3773 64.2857 78.3773 54.7887C78.3773 37.6137 65.6657 23.6847 49.9919 23.6847C34.318 23.6847 21.6064 37.6137 21.6064 54.7887C21.6064 63.3851 24.7966 71.1789 29.9479 76.8058L29.4841 90.6635L24.1862 96.4687C22.2982 98.5375 19.2057 98.5375 17.3177 96.4687L10.14 88.6035C8.25195 86.5347 8.25195 83.1461 10.14 81.0772L15.918 74.7459C14.3229 71.4821 13.1022 67.9686 12.3291 64.2679H4.84212C2.18913 64.259 0 61.8602 0 58.9353V47.8241C0 44.8992 2.18913 42.5004 4.8584 42.5004H13.029C14.0299 38.88 15.4622 35.4557 17.2607 32.3167L11.9629 26.5115C10.0749 24.4427 10.0749 21.054 11.9629 18.9852L19.1406 11.12C21.0286 9.05119 24.1211 9.05119 26.0091 11.12L31.7871 17.4514C34.7656 15.7036 37.972 14.366 41.3493 13.5188V5.31479C41.3493 2.39879 43.5384 0 46.2077 0H56.3558C59.0251 0 61.2142 2.39879 61.2142 5.3237V14.2679C64.5182 15.3647 67.6432 16.9342 70.5078 18.9049L75.8057 13.0997C77.6856 11.0398 80.778 11.0398 82.666 13.1086Z" fill="#747E99"/>
<path d="M35.9938 66.4526C32.4619 61.3519 29.6543 55.6269 32.5758 47.2267C34.4639 41.7781 38.8258 37.3105 44.319 34.8136C35.3428 56.5186 61.1159 64.2946 61.889 38.5857C70.5153 46.433 70.442 58.0078 64.1188 67.3622C61.1321 71.7852 60.3265 74.2732 59.6754 76.8147C59.3011 78.2058 59.2279 79.6058 59.2279 81.3715C59.2197 83.7703 59.3174 92.5093 59.4394 99.8127H53.5719V80.7562C53.5719 77.3051 48.8112 77.3051 48.8112 80.7562V99.8127H43.4157C43.2936 92.973 43.1634 84.7244 43.0251 82.5575C42.903 80.3281 42.6995 78.8389 42.195 77.43C41.3079 74.8796 40.1849 72.57 35.9938 66.5329V66.4526Z" fill="#747E99"/>
</g>
<defs>
<clipPath id="clip0_1808_27">
<rect width="100" height="100" fill="white"/>
</clipPath>
</defs>
</svg>
