<svg width="100" height="100" viewBox="0 0 100 100" fill="none" xmlns="http://www.w3.org/2000/svg">
<path fill-rule="evenodd" clip-rule="evenodd" d="M81.0684 13.858C76.6914 9.45216 71.4835 5.95865 65.7466 3.57988C60.0097 1.20111 53.8579 -0.0156328 47.6474 0.000151627C21.6053 0.000151627 0.405263 21.1949 0.394737 47.2475C0.394737 55.5738 2.56842 63.7001 6.7 70.8685L0 95.3474L25.0474 88.7737C31.9758 92.5453 39.7379 94.5229 47.6263 94.5263H47.6474C73.6842 94.5263 94.8842 73.3316 94.8947 47.279C94.9126 41.0711 93.6999 34.9211 91.3267 29.1846C88.9535 23.4482 85.4669 18.2389 81.0684 13.858ZM47.6474 86.5527H47.6316C40.5975 86.5534 33.6928 84.6609 27.6421 81.0737L26.2105 80.2211L11.3474 84.1211L15.3105 69.6316L14.3789 68.1474C10.4463 61.8865 8.36439 54.641 8.37368 47.2475C8.38421 25.5949 26 7.97909 47.6632 7.97909C52.8224 7.96762 57.9326 8.97952 62.6982 10.9562C67.4637 12.9329 71.7899 15.8351 75.4263 19.4949C79.0822 23.1372 81.98 27.468 83.952 32.2369C85.9241 37.0059 86.9315 42.1184 86.9158 47.279C86.9053 68.9316 69.2895 86.5527 47.6474 86.5527ZM69.1895 57.1369C68.0053 56.5422 62.2053 53.6895 61.1211 53.2948C60.0421 52.9001 59.2579 52.7053 58.4684 53.8843C57.6789 55.0632 55.4158 57.7211 54.7263 58.5106C54.0368 59.3001 53.3474 59.3948 52.1684 58.8053C50.9895 58.2159 47.1842 56.9685 42.6737 52.9474C39.1632 49.8159 36.7947 45.9527 36.1053 44.7685C35.4158 43.5843 36.0316 42.9475 36.6263 42.358C37.1579 41.8317 37.8053 40.979 38.3947 40.2896C38.9842 39.6001 39.1789 39.1106 39.5737 38.3211C39.9684 37.5317 39.7737 36.8422 39.4737 36.2527C39.1789 35.658 36.8158 29.8475 35.8316 27.4843C34.8789 25.1949 33.9053 25.5001 33.1789 25.4685C32.4267 25.4378 31.6739 25.4237 30.9211 25.4264C30.3224 25.4417 29.7334 25.5805 29.1908 25.8341C28.6483 26.0876 28.1641 26.4506 27.7684 26.9001C26.6842 28.0843 23.6368 30.9369 23.6368 36.7475C23.6368 42.558 27.8684 48.1738 28.4579 48.9632C29.0474 49.7527 36.7842 61.6737 48.6263 66.7895C51.4474 68.0053 53.6474 68.7316 55.3579 69.279C58.1842 70.179 60.7579 70.0474 62.7947 69.7474C65.0632 69.4106 69.7789 66.8948 70.7632 64.1369C71.7474 61.379 71.7474 59.0159 71.4526 58.5211C71.1579 58.0264 70.3632 57.7264 69.1895 57.1369Z" fill="#584B4F"/>
</svg>
