<svg width="286" height="78" viewBox="0 0 286 78" fill="none" xmlns="http://www.w3.org/2000/svg">
<g clip-path="url(#clip0_2091_2)">
<path d="M189.185 38.2576C186.257 36.7168 182.572 37.8819 180.969 40.855C179.679 43.2489 180.15 46.0774 181.903 47.9015C180.908 49.2207 179.662 50.0836 178.108 50.4981C173.684 51.6757 168.117 49.0664 165.602 47.6877L170.757 38.1246C173.302 38.6056 176.008 37.4138 177.32 34.9799C178.923 32.0069 177.845 28.335 174.917 26.7942C171.989 25.2534 168.304 26.4185 166.701 29.3916C165.389 31.8255 165.899 34.7097 167.723 36.5279L162.47 46.2728C159.925 45.7917 157.218 46.9835 155.906 49.4174C154.304 52.3905 155.382 56.0624 158.31 57.6032C161.238 59.144 164.923 57.9788 166.526 55.0058C166.983 54.157 167.198 53.2534 167.239 52.3574C170.518 53.7155 174.932 54.9092 178.913 53.8539C181.405 53.1939 183.419 51.7482 184.93 49.5695C187.503 50.103 190.26 48.9081 191.589 46.4433C193.191 43.4703 192.113 39.7984 189.185 38.2576ZM169.735 30.9882C170.422 29.7143 172.002 29.2148 173.256 29.8751C174.511 30.5353 174.973 32.1093 174.286 33.3833C173.6 34.6572 172.02 35.1566 170.765 34.4964C169.511 33.8362 169.049 32.2622 169.735 30.9882ZM159.97 54.5223C158.716 53.8621 158.254 52.2881 158.94 51.0141C159.269 50.407 159.819 49.9486 160.473 49.7381C161.126 49.5277 161.83 49.5821 162.433 49.8896L162.622 50.0088C162.913 50.1768 163.167 50.4015 163.37 50.6701C163.573 50.9386 163.72 51.2459 163.803 51.5742C163.886 51.9025 163.903 52.2455 163.854 52.5836C163.805 52.9216 163.69 53.2482 163.516 53.5445C163.342 53.8409 163.112 54.1013 162.84 54.3108C162.567 54.5203 162.258 54.6749 161.928 54.7657C161.599 54.8565 161.257 54.8817 160.921 54.8399C160.585 54.7982 160.262 54.6902 159.97 54.5223ZM185.034 45.9598C183.779 45.2996 183.317 43.7256 184.004 42.4517C184.69 41.1777 186.27 40.6783 187.525 41.3385C188.779 41.9987 189.241 43.5727 188.555 44.8467C187.868 46.1206 186.288 46.6201 185.034 45.9598Z" fill="#485461"/>
<path d="M177.502 67V56.3341C188.793 56.3341 197.552 45.1427 193.222 33.258C192.419 31.0825 191.153 29.1078 189.51 27.4707C187.868 25.8337 185.889 24.5736 183.711 23.7778C171.83 19.4779 160.633 28.207 160.633 39.4975H150C150 21.5027 167.4 7.46941 186.27 13.365C194.498 15.951 201.079 22.5013 203.637 30.7325C209.527 49.5994 195.494 67 177.502 67Z" fill="#747E99"/>
<path d="M146.032 69L131.344 39.528L145.648 12.264H152.272L137.488 39.624L152.752 69H146.032ZM124.048 69V12.264H130.096V69H124.048ZM222.617 69.768C220.249 69.768 218.297 69.48 216.761 68.904C215.225 68.264 214.009 67.4 213.113 66.312C212.281 65.16 211.705 63.752 211.385 62.088C211.065 60.36 210.905 58.408 210.905 56.232V32.52C210.905 30.792 211.065 29.224 211.385 27.816C211.769 26.344 212.377 25.096 213.209 24.072C214.041 22.984 215.161 22.152 216.569 21.576C217.977 20.936 219.769 20.616 221.945 20.616C224.505 20.616 226.489 21 227.897 21.768C229.369 22.536 230.425 23.464 231.065 24.552V8.51999H237.017V69H232.889L232.313 64.488C231.929 65.32 231.353 66.152 230.585 66.984C229.881 67.752 228.889 68.424 227.609 69C226.393 69.512 224.729 69.768 222.617 69.768ZM223.673 66.12C225.529 66.12 226.969 65.8 227.993 65.16C229.017 64.456 229.721 63.56 230.105 62.472C230.553 61.384 230.809 60.2 230.873 58.92C231.001 57.576 231.065 56.264 231.065 54.984V28.968C230.873 28.392 230.521 27.752 230.009 27.048C229.561 26.344 228.857 25.736 227.897 25.224C226.937 24.712 225.625 24.456 223.961 24.456C222.105 24.456 220.697 24.712 219.737 25.224C218.777 25.736 218.073 26.44 217.625 27.336C217.241 28.168 217.017 29.128 216.953 30.216C216.889 31.304 216.857 32.424 216.857 33.576V57C216.857 58.536 216.953 60.008 217.145 61.416C217.337 62.824 217.913 63.976 218.873 64.872C219.833 65.704 221.433 66.12 223.673 66.12ZM259.407 69.864C256.207 69.864 253.615 69.512 251.631 68.808C249.647 68.04 248.207 66.664 247.311 64.68C246.415 62.696 245.967 59.816 245.967 56.04V32.328C245.967 27.848 246.959 24.776 248.943 23.112C250.991 21.448 254.351 20.616 259.023 20.616C263.567 20.616 266.831 21.448 268.815 23.112C270.863 24.776 271.887 27.848 271.887 32.328V44.616H251.919V58.056C251.919 61.128 252.399 63.272 253.359 64.488C254.319 65.64 256.271 66.216 259.215 66.216C261.903 66.216 263.695 65.64 264.591 64.488C265.487 63.336 265.935 61.192 265.935 58.056V51.912H271.887V55.944C271.887 59.656 271.439 62.536 270.543 64.584C269.647 66.568 268.271 67.944 266.415 68.712C264.623 69.48 262.287 69.864 259.407 69.864ZM251.919 41.544H265.935V32.136C265.935 29.448 265.487 27.496 264.591 26.28C263.695 25.064 261.839 24.456 259.023 24.456C256.207 24.456 254.319 25.064 253.359 26.28C252.399 27.496 251.919 29.448 251.919 32.136V41.544Z" fill="#485461"/>
<path d="M16.048 69V12.264H33.04C35.472 12.264 37.552 12.616 39.28 13.32C41.072 14.024 42.416 15.24 43.312 16.968C44.272 18.632 44.752 20.936 44.752 23.88V56.616C44.752 59.88 44.24 62.408 43.216 64.2C42.192 65.992 40.72 67.24 38.8 67.944C36.944 68.648 34.768 69 32.272 69H16.048ZM22.288 65.544H31.504C33.68 65.544 35.408 64.968 36.688 63.816C38.032 62.6 38.704 60.296 38.704 56.904V24.648C38.704 21.256 38.032 18.952 36.688 17.736C35.408 16.52 33.68 15.912 31.504 15.912H22.288V65.544ZM51.8575 69L64.4335 12.264H72.2095L84.5935 69H78.0655L74.9935 55.848H61.0735L58.1935 69H51.8575ZM61.2655 52.488H74.8975L68.1775 19.656L61.2655 52.488ZM96.0963 69L85.5362 12.264H91.5842L100.224 61.128H99.9362L108.576 12.264H114.528L103.776 69H96.0963Z" fill="#747E99"/>
<path d="M267.881 78C266.842 78 266 77.05 266 75.8789C266 74.7079 266.842 73.7579 267.881 73.7579C272.145 73.7579 275.615 69.8441 275.615 65.0328V46.473C275.615 43.4566 276.856 40.7599 278.791 39C276.856 37.2401 275.615 34.5434 275.615 31.527V12.9672C275.615 8.1559 272.145 4.24212 267.881 4.24212C266.842 4.24212 266 3.29212 266 2.12105C266 0.947788 266.842 -3.09944e-06 267.881 -3.09944e-06C274.22 -3.09944e-06 279.377 5.81595 279.377 12.9672V31.527C279.377 34.4777 281.504 36.8789 284.119 36.8789C285.158 36.8789 286 37.8289 286 39C286 40.1711 285.158 41.1211 284.119 41.1211C281.504 41.1211 279.377 43.5223 279.377 46.473V65.0328C279.377 72.184 274.22 78 267.881 78Z" fill="#747E99"/>
<path d="M18.1194 78C11.7807 78 6.62372 72.1841 6.62372 65.0328V46.473C6.62372 43.5223 4.49595 41.1211 1.88077 41.1211C0.842104 41.1211 0 40.1711 0 39C0 37.8289 0.842104 36.8789 1.88077 36.8789C4.49595 36.8789 6.62372 34.4777 6.62372 31.527V12.9672C6.62372 5.81595 11.7807 2.81213e-06 18.1194 2.81213e-06C19.1581 2.81213e-06 20 0.947793 20 2.12105C20 3.29213 19.1581 4.24213 18.1194 4.24213C13.8546 4.24213 10.3851 8.15591 10.3851 12.9672V31.527C10.3851 34.5434 9.14441 37.2401 7.20892 39C9.14441 40.7599 10.3851 43.4566 10.3851 46.473V65.0328C10.3851 69.8441 13.8546 73.7579 18.1194 73.7579C19.1581 73.7579 20 74.7079 20 75.8789C20 77.05 19.1581 78 18.1194 78Z" fill="#747E99"/>
</g>
<defs>
<clipPath id="clip0_2091_2">
<rect width="286" height="78" fill="white"/>
</clipPath>
</defs>
</svg>
