<svg width="286" height="104" viewBox="0 0 286 104" fill="none" xmlns="http://www.w3.org/2000/svg">
<g clip-path="url(#clip0_1377_45)">
<path d="M186.294 2V17H182.765C181 17 181 20.75 181 20.75V83.25C181.156 86.5646 181.841 87.1612 183.647 87H186.294V102H190.706V87H194.235C195.752 86.2072 195.951 85.2343 196 83.25V20.75C195.921 18.9666 196 17 194.235 17H190.706V2H186.294Z" fill="#EDF2F7" stroke="#584B4F" stroke-width="3"/>
<path d="M235.673 71.6553C233.135 70.32 229.954 71.3067 228.58 73.855C227.474 75.9069 227.893 78.3392 229.415 79.9134C228.56 81.043 227.486 81.7796 226.145 82.1296C222.324 83.1243 217.501 80.8605 215.321 79.666L219.74 71.4691C221.942 71.8923 224.277 70.8789 225.402 68.7927C226.775 66.2443 225.829 63.0851 223.291 61.7497C220.754 60.4144 217.572 61.4011 216.198 63.9495C215.074 66.0357 215.526 68.5159 217.11 70.0853L212.608 78.438C210.405 78.0148 208.07 79.0282 206.946 81.1145C205.572 83.6628 206.519 86.8221 209.056 88.1574C211.594 89.4927 214.775 88.506 216.149 85.9577C216.541 85.2301 216.723 84.4546 216.755 83.6849C219.596 84.8646 223.416 85.9074 226.854 85.0163C229.006 84.4588 230.741 83.2246 232.039 81.3584C234.266 81.8268 236.645 80.8108 237.783 78.6982C239.157 76.1499 238.21 72.9906 235.673 71.6553ZM218.828 65.3332C219.417 64.2413 220.78 63.8183 221.868 64.3905C222.955 64.9627 223.361 66.3169 222.772 67.4089C222.184 68.5009 220.82 68.9238 219.732 68.3516C218.645 67.7795 218.239 66.4252 218.828 65.3332ZM210.48 85.5166C209.392 84.9444 208.987 83.5902 209.575 82.4982C209.856 81.9778 210.331 81.5861 210.895 81.4078C211.459 81.2295 212.068 81.2791 212.59 81.5457L212.754 81.6488C213.006 81.7943 213.227 81.9883 213.404 82.2199C213.58 82.4515 213.708 82.716 213.781 82.9984C213.855 83.2809 213.871 83.5757 213.83 83.866C213.788 84.1562 213.69 84.4364 213.541 84.6903C213.392 84.9443 213.194 85.1671 212.959 85.3461C212.725 85.5251 212.458 85.6567 212.173 85.7334C211.889 85.8101 211.593 85.8305 211.303 85.7933C211.012 85.7561 210.732 85.6621 210.48 85.5166ZM232.114 78.2572C231.027 77.685 230.621 76.3308 231.21 75.2388C231.798 74.1468 233.162 73.7239 234.249 74.2961C235.337 74.8682 235.743 76.2225 235.154 77.3145C234.565 78.4064 233.201 78.8294 232.114 78.2572Z" fill="#584B4F"/>
<path d="M226.002 99V89.3037C236.266 89.3037 244.229 79.1297 240.293 68.3255C239.563 66.3478 238.412 64.5525 236.919 63.0643C235.426 61.5761 233.627 60.4305 231.647 59.7071C220.845 55.7981 210.666 63.7337 210.666 73.9977H201C201 57.6388 216.819 44.8813 233.973 50.2409C241.453 52.5918 247.435 58.5466 249.761 66.0296C255.116 83.1813 242.358 99 226.002 99Z" fill="#787B86"/>
<path d="M72.6728 72.6553C70.1353 71.32 66.9537 72.3067 65.58 74.855C64.4739 76.9069 64.8928 79.3392 66.4155 80.9134C65.5602 82.043 64.4863 82.7796 63.1449 83.1296C59.3244 84.1243 54.5009 81.8605 52.3212 80.666L56.7397 72.4691C58.9419 72.8923 61.2772 71.8789 62.4018 69.7927C63.7755 67.2443 62.8287 64.0851 60.2912 62.7497C57.7537 61.4144 54.572 62.4011 53.1983 64.9495C52.0738 67.0357 52.5258 69.5159 54.1102 71.0853L49.6076 79.438C47.4055 79.0148 45.0702 80.0282 43.9456 82.1145C42.5719 84.6628 43.5187 87.8221 46.0562 89.1574C48.5937 90.4927 51.7754 89.506 53.149 86.9577C53.5412 86.2301 53.723 85.4546 53.7548 84.6849C56.5956 85.8646 60.4165 86.9074 63.8538 86.0163C66.0057 85.4588 67.7411 84.2246 69.039 82.3584C71.2658 82.8268 73.6446 81.8109 74.7834 79.6982C76.1571 77.1499 75.2104 73.9906 72.6728 72.6553ZM55.8279 66.3332C56.4165 65.2413 57.7804 64.8183 58.8677 65.3905C59.955 65.9627 60.3608 67.3169 59.7722 68.4089C59.1836 69.5009 57.8198 69.9238 56.7324 69.3516C55.6451 68.7795 55.2393 67.4252 55.8279 66.3332ZM47.4797 86.5166C46.3924 85.9444 45.9865 84.5902 46.5751 83.4982C46.8565 82.9778 47.3306 82.5861 47.8948 82.4078C48.459 82.2295 49.068 82.2791 49.5898 82.5457L49.7537 82.6488C50.0064 82.7943 50.2272 82.9883 50.4035 83.2199C50.5799 83.4515 50.7083 83.716 50.7814 83.9984C50.8545 84.2809 50.8709 84.5757 50.8297 84.866C50.7885 85.1562 50.6904 85.4364 50.5411 85.6903C50.3918 85.9443 50.1942 86.1671 49.9595 86.3461C49.7248 86.5251 49.4578 86.6567 49.1735 86.7334C48.8892 86.8101 48.5933 86.8305 48.3027 86.7933C48.0121 86.7561 47.7324 86.6621 47.4797 86.5166ZM69.1141 79.2572C68.0268 78.685 67.6209 77.3308 68.2096 76.2388C68.7982 75.1469 70.162 74.7239 71.2493 75.2961C72.3367 75.8683 72.7425 77.2225 72.1539 78.3145C71.5653 79.4064 70.2014 79.8294 69.1141 79.2572Z" fill="#584B4F"/>
<path d="M62.0021 100V90.3037C72.266 90.3037 80.229 80.1297 76.2925 69.3255C75.5628 67.3478 74.4115 65.5525 72.9186 64.0643C71.4256 62.5761 69.6267 61.4305 67.6467 60.7071C56.8451 56.7981 46.6662 64.7337 46.6662 74.9977H37C37 58.6388 52.8185 45.8813 69.9726 51.2409C77.453 53.5918 83.4352 59.5466 85.7611 67.0296C91.1157 84.1813 78.3583 100 62.0021 100Z" fill="#787B86"/>
<path d="M17.568 100.672C14.688 100.672 12.192 100.16 10.08 99.136C8.032 98.112 6.432 96.416 5.28 94.048C4.128 91.616 3.552 88.256 3.552 83.968V80.8C4.576 80.8 5.6 80.8 6.624 80.8C7.712 80.8 8.736 80.8 9.696 80.8V84.352C9.696 87.552 10.016 90.048 10.656 91.84C11.36 93.568 12.288 94.784 13.44 95.488C14.656 96.192 16.032 96.544 17.568 96.544C20.064 96.544 22.08 95.776 23.616 94.24C25.216 92.64 26.016 89.824 26.016 85.792C26.016 82.912 25.6 80.768 24.768 79.36C23.936 77.888 22.656 76.736 20.928 75.904C19.2 75.008 17.088 74.048 14.592 73.024C12.544 72.192 10.688 71.2 9.024 70.048C7.424 68.832 6.176 67.264 5.28 65.344C4.384 63.424 3.936 60.992 3.936 58.048C3.936 54.72 4.384 51.968 5.28 49.792C6.176 47.552 7.648 45.888 9.696 44.8C11.744 43.712 14.464 43.168 17.856 43.168C22.272 43.168 25.664 44.288 28.032 46.528C30.464 48.704 31.68 51.808 31.68 55.84V62.08C30.72 62.08 29.728 62.08 28.704 62.08C27.744 62.08 26.752 62.08 25.728 62.08V57.28C25.728 54.208 25.056 51.904 23.712 50.368C22.432 48.768 20.512 47.968 17.952 47.968C15.136 47.968 13.088 48.8 11.808 50.464C10.592 52.064 9.984 54.528 9.984 57.856C9.984 60.352 10.464 62.336 11.424 63.808C12.384 65.216 13.632 66.336 15.168 67.168C16.704 67.936 18.336 68.64 20.064 69.28C22.944 70.368 25.28 71.52 27.072 72.736C28.864 73.888 30.176 75.392 31.008 77.248C31.84 79.104 32.256 81.696 32.256 85.024C32.256 88.928 31.616 92.032 30.336 94.336C29.12 96.576 27.392 98.208 25.152 99.232C22.976 100.192 20.448 100.672 17.568 100.672ZM96.0705 100V39.136H101.926V100H96.0705ZM123.046 100.768C119.718 100.768 117.254 100.192 115.654 99.04C114.054 97.824 113.03 96.256 112.582 94.336C112.134 92.416 111.91 90.368 111.91 88.192V52.48H117.862V87.424C117.862 88.832 117.926 90.24 118.054 91.648C118.246 92.992 118.854 94.112 119.878 95.008C120.902 95.84 122.598 96.256 124.966 96.256C126.63 96.256 127.942 95.968 128.902 95.392C129.862 94.816 130.598 94.144 131.11 93.376C131.622 92.544 131.942 91.808 132.07 91.168V52.48H138.022V100H132.934L132.454 94.816C131.942 96.352 130.886 97.728 129.286 98.944C127.75 100.16 125.67 100.768 123.046 100.768ZM160.879 100.864C157.743 100.864 155.183 100.512 153.199 99.808C151.215 99.04 149.775 97.696 148.879 95.776C147.983 93.792 147.535 90.912 147.535 87.136V63.712C147.535 59.04 148.527 55.872 150.511 54.208C152.559 52.48 155.919 51.616 160.591 51.616C165.135 51.616 168.399 52.448 170.383 54.112C172.431 55.776 173.455 58.848 173.455 63.328V69.568H167.503V63.136C167.503 60.384 167.055 58.4 166.159 57.184C165.263 55.904 163.407 55.264 160.591 55.264C157.775 55.264 155.887 55.904 154.927 57.184C153.967 58.4 153.487 60.384 153.487 63.136V88.672C153.487 91.744 153.967 93.92 154.927 95.2C155.887 96.416 157.839 97.024 160.783 97.024C163.471 97.024 165.263 96.416 166.159 95.2C167.055 93.984 167.503 91.808 167.503 88.672V82.24H173.455V87.136C173.455 90.784 173.007 93.6 172.111 95.584C171.215 97.568 169.839 98.944 167.983 99.712C166.127 100.48 163.759 100.864 160.879 100.864ZM255.243 100V52.48H260.139L260.907 57.568C261.419 55.648 262.603 54.176 264.459 53.152C266.315 52.128 268.235 51.616 270.219 51.616C273.611 51.616 276.075 52.224 277.611 53.44C279.211 54.592 280.235 56.128 280.683 58.048C281.131 59.904 281.355 61.952 281.355 64.192V100H275.403V65.056C275.403 63.904 275.371 62.784 275.307 61.696C275.243 60.608 274.987 59.648 274.539 58.816C274.155 57.92 273.483 57.216 272.523 56.704C271.563 56.192 270.155 55.936 268.299 55.936C266.699 55.936 265.387 56.256 264.363 56.896C263.403 57.472 262.667 58.176 262.155 59.008C261.707 59.776 261.387 60.512 261.195 61.216V100H255.243Z" fill="#584B4F"/>
<path d="M109.032 39V1.176H120.36C121.981 1.176 123.368 1.41066 124.52 1.88C125.715 2.34933 126.611 3.16 127.208 4.312C127.848 5.42133 128.168 6.95733 128.168 8.92V30.744C128.168 32.92 127.827 34.6053 127.144 35.8C126.461 36.9947 125.48 37.8267 124.2 38.296C122.963 38.7653 121.512 39 119.848 39H109.032ZM113.192 36.696H119.336C120.787 36.696 121.939 36.312 122.792 35.544C123.688 34.7333 124.136 33.1973 124.136 30.936V9.432C124.136 7.17066 123.688 5.63466 122.792 4.824C121.939 4.01333 120.787 3.608 119.336 3.608H113.192V36.696ZM132.905 39L141.289 1.176H146.473L154.729 39H150.377L148.329 30.232H139.049L137.129 39H132.905ZM139.177 27.992H148.265L143.785 6.104L139.177 27.992ZM162.398 39L155.357 1.176H159.389L165.149 33.752H164.957L170.718 1.176H174.686L167.517 39H162.398Z" fill="#787B86"/>
</g>
<defs>
<clipPath id="clip0_1377_45">
<rect width="286" height="104" fill="white"/>
</clipPath>
</defs>
</svg>
