<svg width="1048" height="451" viewBox="0 0 1048 451" fill="none" xmlns="http://www.w3.org/2000/svg">
<g clip-path="url(#clip0_1697_34)">
<path d="M29.3203 395.474C29.3238 390.924 31.1338 386.561 34.3526 383.345C37.5713 380.129 41.9354 378.322 46.4857 378.322C51.0359 378.322 55.4 380.129 58.6188 383.345C61.8375 386.561 63.6476 390.924 63.651 395.474" fill="#F2F2F2"/>
<path d="M46.4854 395.474C46.3624 395.474 46.2444 395.425 46.1574 395.338C46.0704 395.251 46.0215 395.133 46.0215 395.01V385.964C46.0215 385.841 46.0704 385.723 46.1574 385.636C46.2444 385.549 46.3624 385.5 46.4854 385.5C46.6085 385.5 46.7265 385.549 46.8135 385.636C46.9005 385.723 46.9493 385.841 46.9493 385.964V395.01C46.9493 395.133 46.9004 395.251 46.8134 395.338C46.7264 395.425 46.6084 395.474 46.4854 395.474Z" fill="#CCCCCC"/>
<path d="M46.4852 392.366C46.3743 392.366 46.2671 392.326 46.1832 392.254L40.6161 387.476C40.5692 387.436 40.5307 387.388 40.5026 387.333C40.4746 387.279 40.4576 387.219 40.4527 387.158C40.4477 387.097 40.455 387.036 40.4739 386.977C40.4929 386.919 40.5232 386.865 40.5631 386.819C40.603 386.772 40.6517 386.734 40.7064 386.707C40.7612 386.679 40.8208 386.663 40.8819 386.658C40.943 386.654 41.0044 386.662 41.0625 386.681C41.1206 386.7 41.1743 386.731 41.2204 386.772L46.7875 391.55C46.8595 391.611 46.9108 391.694 46.9345 391.786C46.9583 391.877 46.9534 391.974 46.9204 392.063C46.8875 392.152 46.8281 392.229 46.7503 392.283C46.6725 392.337 46.58 392.366 46.4852 392.366Z" fill="#CCCCCC"/>
<path d="M82.208 395.474C82.2115 390.924 84.0215 386.561 87.2402 383.345C90.459 380.129 94.8231 378.322 99.3734 378.322C103.924 378.322 108.288 380.129 111.506 383.345C114.725 386.561 116.535 390.924 116.539 395.474" fill="#F2F2F2"/>
<path d="M99.3731 395.474C99.2501 395.474 99.1321 395.425 99.0451 395.338C98.9581 395.251 98.9092 395.133 98.9092 395.01V385.964C98.9092 385.841 98.9581 385.723 99.0451 385.636C99.1321 385.549 99.2501 385.5 99.3731 385.5C99.4961 385.5 99.6142 385.549 99.7012 385.636C99.7882 385.723 99.837 385.841 99.837 385.964V395.01C99.837 395.133 99.7881 395.251 99.7011 395.338C99.6141 395.425 99.4961 395.474 99.3731 395.474Z" fill="#CCCCCC"/>
<path d="M99.3732 392.366C99.2624 392.366 99.1552 392.326 99.0712 392.254L93.5041 387.476C93.4572 387.436 93.4185 387.388 93.3904 387.333C93.3624 387.279 93.3453 387.219 93.3404 387.158C93.3354 387.097 93.3426 387.036 93.3616 386.977C93.3805 386.919 93.4109 386.865 93.4508 386.818C93.4907 386.772 93.5395 386.734 93.5942 386.706C93.649 386.679 93.7087 386.662 93.7698 386.658C93.831 386.654 93.8924 386.661 93.9505 386.681C94.0086 386.7 94.0623 386.731 94.1084 386.772L99.6756 391.55C99.7475 391.611 99.7988 391.694 99.8226 391.786C99.8463 391.877 99.8414 391.974 99.8085 392.063C99.7755 392.152 99.7161 392.229 99.6383 392.283C99.5605 392.337 99.468 392.366 99.3732 392.366Z" fill="#CCCCCC"/>
<path d="M784.795 67.3088C803.02 67.3088 817.795 52.5342 817.795 34.3088C817.795 16.0834 803.02 1.30884 784.795 1.30884C766.57 1.30884 751.795 16.0834 751.795 34.3088C751.795 52.5342 766.57 67.3088 784.795 67.3088Z" fill="#F2F2F2"/>
<path d="M108.795 432.309C125.363 432.309 138.795 429.175 138.795 425.309C138.795 421.443 125.363 418.309 108.795 418.309C92.2264 418.309 78.7949 421.443 78.7949 425.309C78.7949 429.175 92.2264 432.309 108.795 432.309Z" fill="#F2F2F2"/>
<path d="M93.4815 137.962C101.349 113.394 120.561 94.3398 143.345 83.0072C170.379 69.5612 201.442 68.0388 230.795 73.272C262.481 78.9212 292.095 91.9444 320.76 106.156C348.877 120.096 376.54 134.816 405.781 146.336C464.158 169.302 526.031 182.118 588.727 184.232C645.158 186.114 705.494 179.931 753.812 148.214C798.085 119.152 826.256 71.208 840.929 21.2319C842.807 14.8338 844.477 8.38069 845.939 1.87257C846.365 -0.00734651 843.473 -0.810002 843.046 1.07506C831.21 53.2627 805.972 104.842 762.848 138.109C716.207 174.089 654.994 182.407 597.711 181.455C534.33 180.348 471.622 168.247 412.38 145.691C382.387 134.273 354.084 119.446 325.42 105.131C297.386 91.1313 268.564 78.0261 237.737 71.5693C209.588 65.6733 179.45 65.314 152.309 75.8057C129.961 84.4448 109.585 99.8434 97.6599 120.908C94.7523 126.071 92.3827 131.518 90.5887 137.165C89.9985 139.008 92.894 139.797 93.4815 137.962Z" fill="#F2F2F2"/>
<path d="M216.795 325.707C216.795 308.046 202.468 266.137 184.795 266.137C167.122 266.137 152.795 308.046 152.795 325.707C152.795 334.194 156.166 342.334 162.168 348.335C168.169 354.336 176.308 357.707 184.795 357.707C193.282 357.707 201.421 354.336 207.422 348.335C213.424 342.334 216.795 334.194 216.795 325.707Z" fill="#E6E6E6"/>
<path d="M208.795 325.707C208.795 308.046 194.468 266.137 176.795 266.137C159.122 266.137 144.795 308.046 144.795 325.707C144.795 334.194 148.166 342.334 154.168 348.335C160.169 354.336 168.308 357.707 176.795 357.707C185.282 357.707 193.421 354.336 199.422 348.335C205.424 342.334 208.795 334.194 208.795 325.707Z" fill="#F2F2F2"/>
<path d="M177.795 397.258C177.53 397.258 177.275 397.152 177.088 396.965C176.9 396.777 176.795 396.523 176.795 396.258V307.117C176.795 306.852 176.9 306.598 177.088 306.41C177.275 306.223 177.53 306.117 177.795 306.117C178.06 306.117 178.314 306.223 178.502 306.41C178.69 306.598 178.795 306.852 178.795 307.117V396.258C178.795 396.523 178.69 396.777 178.502 396.965C178.314 397.152 178.06 397.258 177.795 397.258Z" fill="#CCCCCC"/>
<path d="M177.796 321.73C177.598 321.73 177.405 321.672 177.24 321.562C177.076 321.452 176.948 321.296 176.872 321.113C176.796 320.93 176.777 320.729 176.815 320.535C176.854 320.341 176.949 320.163 177.089 320.023L190.166 306.945C190.354 306.758 190.608 306.652 190.873 306.652C191.139 306.652 191.393 306.758 191.58 306.945C191.768 307.133 191.873 307.387 191.873 307.652C191.873 307.917 191.768 308.172 191.58 308.359L178.503 321.437C178.41 321.53 178.3 321.604 178.178 321.654C178.057 321.705 177.927 321.731 177.796 321.73Z" fill="#CCCCCC"/>
<path d="M652.795 325.707C652.795 308.046 638.468 266.137 620.795 266.137C603.122 266.137 588.795 308.046 588.795 325.707C588.795 334.194 592.166 342.334 598.168 348.335C604.169 354.336 612.308 357.707 620.795 357.707C629.282 357.707 637.421 354.336 643.422 348.335C649.424 342.334 652.795 334.194 652.795 325.707Z" fill="#E6E6E6"/>
<path d="M644.795 325.707C644.795 308.046 630.468 266.137 612.795 266.137C595.122 266.137 580.795 308.046 580.795 325.707C580.795 334.194 584.166 342.334 590.168 348.335C596.169 354.336 604.308 357.707 612.795 357.707C621.282 357.707 629.421 354.336 635.422 348.335C641.424 342.334 644.795 334.194 644.795 325.707Z" fill="#F2F2F2"/>
<path d="M613.795 397.258C613.53 397.258 613.275 397.152 613.088 396.965C612.9 396.777 612.795 396.523 612.795 396.258V307.117C612.795 306.852 612.9 306.598 613.088 306.41C613.275 306.223 613.53 306.117 613.795 306.117C614.06 306.117 614.314 306.223 614.502 306.41C614.69 306.598 614.795 306.852 614.795 307.117V396.258C614.795 396.523 614.69 396.777 614.502 396.965C614.314 397.152 614.06 397.258 613.795 397.258Z" fill="#CCCCCC"/>
<path d="M613.796 321.73C613.598 321.73 613.405 321.672 613.24 321.562C613.076 321.452 612.948 321.296 612.872 321.113C612.796 320.93 612.777 320.729 612.815 320.535C612.854 320.341 612.949 320.163 613.089 320.023L626.166 306.945C626.354 306.758 626.608 306.652 626.873 306.652C627.139 306.652 627.393 306.758 627.58 306.945C627.768 307.133 627.873 307.387 627.873 307.652C627.873 307.917 627.768 308.172 627.58 308.359L614.503 321.437C614.41 321.53 614.3 321.604 614.178 321.654C614.057 321.705 613.927 321.731 613.796 321.73Z" fill="#CCCCCC"/>
<path d="M283.795 51.8088H267.795C266.602 51.8075 265.458 51.333 264.614 50.4893C263.771 49.6457 263.296 48.5019 263.295 47.3088V10.3088C263.296 9.11577 263.771 7.97195 264.614 7.12833C265.458 6.2847 266.602 5.81016 267.795 5.80884H283.795C284.988 5.81016 286.132 6.2847 286.975 7.12833C287.819 7.97195 288.294 9.11577 288.295 10.3088V47.3088C288.294 48.5019 287.819 49.6457 286.975 50.4893C286.132 51.333 284.988 51.8075 283.795 51.8088Z" fill="#E6E6E6"/>
<path d="M346.795 396.809H264.795C262.541 396.806 260.381 395.91 258.787 394.316C257.194 392.723 256.297 390.562 256.295 388.309V57.3088C256.297 55.0553 257.194 52.8947 258.787 51.3012C260.381 49.7077 262.541 48.8114 264.795 48.8088H346.795C349.048 48.8114 351.209 49.7077 352.803 51.3012C354.396 52.8947 355.292 55.0553 355.295 57.3088V388.309C355.292 390.562 354.396 392.723 352.803 394.316C351.209 395.91 349.048 396.806 346.795 396.809Z" fill="#E6E6E6"/>
<path d="M297.795 396.809H215.795C213.541 396.806 211.381 395.91 209.787 394.316C208.194 392.723 207.297 390.562 207.295 388.309V57.3088C207.297 55.0553 208.194 52.8947 209.787 51.3012C211.381 49.7077 213.541 48.8114 215.795 48.8088H297.795C300.048 48.8114 302.209 49.7077 303.803 51.3012C305.396 52.8947 306.292 55.0553 306.295 57.3088V388.309C306.292 390.562 305.396 392.723 303.803 394.316C302.209 395.91 300.048 396.806 297.795 396.809Z" fill="#F2F2F2"/>
<path d="M268.795 51.8088H252.795C251.602 51.8075 250.458 51.333 249.614 50.4893C248.771 49.6457 248.296 48.5019 248.295 47.3088V10.3088C248.296 9.11577 248.771 7.97195 249.614 7.12833C250.458 6.2847 251.602 5.81016 252.795 5.80884H268.795C269.988 5.81016 271.132 6.2847 271.975 7.12833C272.819 7.97195 273.294 9.11577 273.295 10.3088V47.3088C273.294 48.5019 272.819 49.6457 271.975 50.4893C271.132 51.333 269.988 51.8075 268.795 51.8088Z" fill="#F2F2F2"/>
<path d="M247.795 123.809H228.795C228.132 123.808 227.497 123.544 227.028 123.076C226.559 122.607 226.296 121.972 226.295 121.309V92.3088C226.296 91.646 226.559 91.0106 227.028 90.5419C227.497 90.0732 228.132 89.8096 228.795 89.8088H247.795C248.458 89.8096 249.093 90.0732 249.562 90.5419C250.031 91.0106 250.294 91.646 250.295 92.3088V121.309C250.294 121.972 250.031 122.607 249.562 123.076C249.093 123.544 248.458 123.808 247.795 123.809Z" fill="white"/>
<path d="M284.795 123.809H265.795C265.132 123.808 264.497 123.544 264.028 123.076C263.559 122.607 263.296 121.972 263.295 121.309V92.3088C263.296 91.646 263.559 91.0106 264.028 90.5419C264.497 90.0732 265.132 89.8096 265.795 89.8088H284.795C285.458 89.8096 286.093 90.0732 286.562 90.5419C287.031 91.0106 287.294 91.646 287.295 92.3088V121.309C287.294 121.972 287.031 122.607 286.562 123.076C286.093 123.544 285.458 123.808 284.795 123.809Z" fill="white"/>
<path d="M247.795 176.809H228.795C228.132 176.808 227.497 176.544 227.028 176.076C226.559 175.607 226.296 174.972 226.295 174.309V145.309C226.296 144.646 226.559 144.011 227.028 143.542C227.497 143.073 228.132 142.81 228.795 142.809H247.795C248.458 142.81 249.093 143.073 249.562 143.542C250.031 144.011 250.294 144.646 250.295 145.309V174.309C250.294 174.972 250.031 175.607 249.562 176.076C249.093 176.544 248.458 176.808 247.795 176.809Z" fill="white"/>
<path d="M284.795 176.809H265.795C265.132 176.808 264.497 176.544 264.028 176.076C263.559 175.607 263.296 174.972 263.295 174.309V145.309C263.296 144.646 263.559 144.011 264.028 143.542C264.497 143.073 265.132 142.81 265.795 142.809H284.795C285.458 142.81 286.093 143.073 286.562 143.542C287.031 144.011 287.294 144.646 287.295 145.309V174.309C287.294 174.972 287.031 175.607 286.562 176.076C286.093 176.544 285.458 176.808 284.795 176.809Z" fill="white"/>
<path d="M247.795 229.809H228.795C228.132 229.808 227.497 229.544 227.028 229.076C226.559 228.607 226.296 227.972 226.295 227.309V198.309C226.296 197.646 226.559 197.011 227.028 196.542C227.497 196.073 228.132 195.81 228.795 195.809H247.795C248.458 195.81 249.093 196.073 249.562 196.542C250.031 197.011 250.294 197.646 250.295 198.309V227.309C250.294 227.972 250.031 228.607 249.562 229.076C249.093 229.544 248.458 229.808 247.795 229.809Z" fill="white"/>
<path d="M284.795 229.809H265.795C265.132 229.808 264.497 229.544 264.028 229.076C263.559 228.607 263.296 227.972 263.295 227.309V198.309C263.296 197.646 263.559 197.011 264.028 196.542C264.497 196.073 265.132 195.81 265.795 195.809H284.795C285.458 195.81 286.093 196.073 286.562 196.542C287.031 197.011 287.294 197.646 287.295 198.309V227.309C287.294 227.972 287.031 228.607 286.562 229.076C286.093 229.544 285.458 229.808 284.795 229.809Z" fill="white"/>
<path d="M247.795 282.809H228.795C228.132 282.808 227.497 282.544 227.028 282.076C226.559 281.607 226.296 280.972 226.295 280.309V251.309C226.296 250.646 226.559 250.011 227.028 249.542C227.497 249.073 228.132 248.81 228.795 248.809H247.795C248.458 248.81 249.093 249.073 249.562 249.542C250.031 250.011 250.294 250.646 250.295 251.309V280.309C250.294 280.972 250.031 281.607 249.562 282.076C249.093 282.544 248.458 282.808 247.795 282.809Z" fill="white"/>
<path d="M284.795 282.809H265.795C265.132 282.808 264.497 282.544 264.028 282.076C263.559 281.607 263.296 280.972 263.295 280.309V251.309C263.296 250.646 263.559 250.011 264.028 249.542C264.497 249.073 265.132 248.81 265.795 248.809H284.795C285.458 248.81 286.093 249.073 286.562 249.542C287.031 250.011 287.294 250.646 287.295 251.309V280.309C287.294 280.972 287.031 281.607 286.562 282.076C286.093 282.544 285.458 282.808 284.795 282.809Z" fill="white"/>
<path d="M247.795 335.809H228.795C228.132 335.808 227.497 335.544 227.028 335.076C226.559 334.607 226.296 333.972 226.295 333.309V304.309C226.296 303.646 226.559 303.011 227.028 302.542C227.497 302.073 228.132 301.81 228.795 301.809H247.795C248.458 301.81 249.093 302.073 249.562 302.542C250.031 303.011 250.294 303.646 250.295 304.309V333.309C250.294 333.972 250.031 334.607 249.562 335.076C249.093 335.544 248.458 335.808 247.795 335.809Z" fill="white"/>
<path d="M284.795 335.809H265.795C265.132 335.808 264.497 335.544 264.028 335.076C263.559 334.607 263.296 333.972 263.295 333.309V304.309C263.296 303.646 263.559 303.011 264.028 302.542C264.497 302.073 265.132 301.81 265.795 301.809H284.795C285.458 301.81 286.093 302.073 286.562 302.542C287.031 303.011 287.294 303.646 287.295 304.309V333.309C287.294 333.972 287.031 334.607 286.562 335.076C286.093 335.544 285.458 335.808 284.795 335.809Z" fill="white"/>
<path d="M696.795 226.809H680.795C679.602 226.807 678.458 226.333 677.614 225.489C676.771 224.646 676.296 223.502 676.295 222.309V201.309C676.296 200.116 676.771 198.972 677.614 198.128C678.458 197.285 679.602 196.81 680.795 196.809H696.795C697.988 196.81 699.132 197.285 699.975 198.128C700.819 198.972 701.294 200.116 701.295 201.309V222.309C701.294 223.502 700.819 224.646 699.975 225.489C699.132 226.333 697.988 226.807 696.795 226.809Z" fill="#E6E6E6"/>
<path d="M831.795 397.809H749.795C747.541 397.806 745.381 396.91 743.787 395.316C742.194 393.723 741.297 391.562 741.295 389.309V230.309C741.297 228.055 742.194 225.895 743.787 224.301C745.381 222.708 747.541 221.811 749.795 221.809H831.795C834.048 221.811 836.209 222.708 837.803 224.301C839.396 225.895 840.292 228.055 840.295 230.309V389.309C840.292 391.562 839.396 393.723 837.803 395.316C836.209 396.91 834.048 397.806 831.795 397.809Z" fill="#E6E6E6"/>
<path d="M782.795 397.809H640.795C638.541 397.806 636.381 396.91 634.787 395.316C633.194 393.723 632.297 391.562 632.295 389.309V230.309C632.297 228.055 633.194 225.895 634.787 224.301C636.381 222.708 638.541 221.811 640.795 221.809H782.795C785.048 221.811 787.209 222.708 788.803 224.301C790.396 225.895 791.292 228.055 791.295 230.309V389.309C791.292 391.562 790.396 393.723 788.803 395.316C787.209 396.91 785.048 397.806 782.795 397.809Z" fill="#F2F2F2"/>
<path d="M681.795 226.809H665.795C664.602 226.807 663.458 226.333 662.614 225.489C661.771 224.646 661.296 223.502 661.295 222.309V201.309C661.296 200.116 661.771 198.972 662.614 198.128C663.458 197.285 664.602 196.81 665.795 196.809H681.795C682.988 196.81 684.132 197.285 684.975 198.128C685.819 198.972 686.294 200.116 686.295 201.309V222.309C686.294 223.502 685.819 224.646 684.975 225.489C684.132 226.333 682.988 226.807 681.795 226.809Z" fill="#F2F2F2"/>
<path d="M702.795 300.309H683.795C683.132 300.308 682.497 300.044 682.028 299.576C681.559 299.107 681.296 298.472 681.295 297.809V268.809C681.296 268.146 681.559 267.511 682.028 267.042C682.497 266.573 683.132 266.31 683.795 266.309H702.795C703.458 266.31 704.093 266.573 704.562 267.042C705.031 267.511 705.294 268.146 705.295 268.809V297.809C705.294 298.472 705.031 299.107 704.562 299.576C704.093 300.044 703.458 300.308 702.795 300.309Z" fill="white"/>
<path d="M739.795 300.309H720.795C720.132 300.308 719.497 300.044 719.028 299.576C718.559 299.107 718.296 298.472 718.295 297.809V268.809C718.296 268.146 718.559 267.511 719.028 267.042C719.497 266.573 720.132 266.31 720.795 266.309H739.795C740.458 266.31 741.093 266.573 741.562 267.042C742.031 267.511 742.294 268.146 742.295 268.809V297.809C742.294 298.472 742.031 299.107 741.562 299.576C741.093 300.044 740.458 300.308 739.795 300.309Z" fill="white"/>
<path d="M702.795 353.309H683.795C683.132 353.308 682.497 353.044 682.028 352.576C681.559 352.107 681.296 351.472 681.295 350.809V321.809C681.296 321.146 681.559 320.511 682.028 320.042C682.497 319.573 683.132 319.31 683.795 319.309H702.795C703.458 319.31 704.093 319.573 704.562 320.042C705.031 320.511 705.294 321.146 705.295 321.809V350.809C705.294 351.472 705.031 352.107 704.562 352.576C704.093 353.044 703.458 353.308 702.795 353.309Z" fill="white"/>
<path d="M739.795 353.309H720.795C720.132 353.308 719.497 353.044 719.028 352.576C718.559 352.107 718.296 351.472 718.295 350.809V321.809C718.296 321.146 718.559 320.511 719.028 320.042C719.497 319.573 720.132 319.31 720.795 319.309H739.795C740.458 319.31 741.093 319.573 741.562 320.042C742.031 320.511 742.294 321.146 742.295 321.809V350.809C742.294 351.472 742.031 352.107 741.562 352.576C741.093 353.044 740.458 353.308 739.795 353.309Z" fill="white"/>
<path d="M1046.8 398.309H1C0.734784 398.309 0.480429 398.203 0.292892 398.016C0.105356 397.828 0 397.574 0 397.309C0 397.044 0.105356 396.789 0.292892 396.602C0.480429 396.414 0.734784 396.309 1 396.309H1046.8C1047.06 396.309 1047.31 396.414 1047.5 396.602C1047.69 396.789 1047.8 397.044 1047.8 397.309C1047.8 397.574 1047.69 397.828 1047.5 398.016C1047.31 398.203 1047.06 398.309 1046.8 398.309Z" fill="#E6E6E6"/>
<path d="M362.795 433.309H269.795C269.53 433.309 269.275 433.203 269.088 433.016C268.9 432.828 268.795 432.574 268.795 432.309C268.795 432.044 268.9 431.789 269.088 431.602C269.275 431.414 269.53 431.309 269.795 431.309H362.795C363.06 431.309 363.314 431.414 363.502 431.602C363.69 431.789 363.795 432.044 363.795 432.309C363.795 432.574 363.69 432.828 363.502 433.016C363.314 433.203 363.06 433.309 362.795 433.309Z" fill="#E6E6E6"/>
<path d="M593.795 433.309H500.795C500.53 433.309 500.275 433.203 500.088 433.016C499.9 432.828 499.795 432.574 499.795 432.309C499.795 432.044 499.9 431.789 500.088 431.602C500.275 431.414 500.53 431.309 500.795 431.309H593.795C594.06 431.309 594.314 431.414 594.502 431.602C594.69 431.789 594.795 432.044 594.795 432.309C594.795 432.574 594.69 432.828 594.502 433.016C594.314 433.203 594.06 433.309 593.795 433.309Z" fill="#E6E6E6"/>
<path d="M824.795 433.309H731.795C731.53 433.309 731.275 433.203 731.088 433.016C730.9 432.828 730.795 432.574 730.795 432.309C730.795 432.044 730.9 431.789 731.088 431.602C731.275 431.414 731.53 431.309 731.795 431.309H824.795C825.06 431.309 825.314 431.414 825.502 431.602C825.69 431.789 825.795 432.044 825.795 432.309C825.795 432.574 825.69 432.828 825.502 433.016C825.314 433.203 825.06 433.309 824.795 433.309Z" fill="#E6E6E6"/>
<path d="M415.795 325.707C415.795 308.046 401.468 266.137 383.795 266.137C366.122 266.137 351.795 308.046 351.795 325.707C351.795 334.194 355.166 342.334 361.168 348.335C367.169 354.336 375.308 357.707 383.795 357.707C392.282 357.707 400.421 354.336 406.422 348.335C412.424 342.334 415.795 334.194 415.795 325.707Z" fill="#E6E6E6"/>
<path d="M407.795 325.707C407.795 308.046 393.468 266.137 375.795 266.137C358.122 266.137 343.795 308.046 343.795 325.707C343.795 334.194 347.166 342.334 353.168 348.335C359.169 354.336 367.308 357.707 375.795 357.707C384.282 357.707 392.421 354.336 398.422 348.335C404.424 342.334 407.795 334.194 407.795 325.707Z" fill="#F2F2F2"/>
<path d="M376.795 397.258C376.53 397.258 376.275 397.152 376.088 396.965C375.9 396.777 375.795 396.523 375.795 396.258V307.117C375.795 306.852 375.9 306.598 376.088 306.41C376.275 306.223 376.53 306.117 376.795 306.117C377.06 306.117 377.314 306.223 377.502 306.41C377.69 306.598 377.795 306.852 377.795 307.117V396.258C377.795 396.523 377.69 396.777 377.502 396.965C377.314 397.152 377.06 397.258 376.795 397.258Z" fill="#CCCCCC"/>
<path d="M376.796 321.73C376.598 321.73 376.405 321.672 376.24 321.562C376.076 321.452 375.948 321.296 375.872 321.113C375.796 320.93 375.777 320.729 375.815 320.535C375.854 320.341 375.949 320.163 376.089 320.023L389.166 306.945C389.354 306.758 389.608 306.652 389.873 306.652C390.139 306.652 390.393 306.758 390.58 306.945C390.768 307.133 390.873 307.387 390.873 307.652C390.873 307.917 390.768 308.172 390.58 308.359L377.503 321.437C377.41 321.53 377.3 321.604 377.178 321.654C377.057 321.705 376.927 321.731 376.796 321.73Z" fill="#CCCCCC"/>
<path d="M926.795 325.707C926.795 308.046 912.468 266.137 894.795 266.137C877.122 266.137 862.795 308.046 862.795 325.707C862.795 334.194 866.166 342.334 872.168 348.335C878.169 354.336 886.308 357.707 894.795 357.707C903.282 357.707 911.421 354.336 917.422 348.335C923.424 342.334 926.795 334.194 926.795 325.707Z" fill="#E6E6E6"/>
<path d="M918.795 325.707C918.795 308.046 904.468 266.137 886.795 266.137C869.122 266.137 854.795 308.046 854.795 325.707C854.795 334.194 858.166 342.334 864.168 348.335C870.169 354.336 878.308 357.707 886.795 357.707C895.282 357.707 903.421 354.336 909.422 348.335C915.424 342.334 918.795 334.194 918.795 325.707Z" fill="#F2F2F2"/>
<path d="M887.795 397.258C887.53 397.258 887.275 397.152 887.088 396.965C886.9 396.777 886.795 396.523 886.795 396.258V307.117C886.795 306.852 886.9 306.598 887.088 306.41C887.275 306.223 887.53 306.117 887.795 306.117C888.06 306.117 888.314 306.223 888.502 306.41C888.69 306.598 888.795 306.852 888.795 307.117V396.258C888.795 396.523 888.69 396.777 888.502 396.965C888.314 397.152 888.06 397.258 887.795 397.258Z" fill="#CCCCCC"/>
<path d="M887.796 321.73C887.598 321.73 887.405 321.672 887.24 321.562C887.076 321.452 886.948 321.296 886.872 321.113C886.796 320.93 886.777 320.729 886.815 320.535C886.854 320.341 886.949 320.163 887.089 320.023L900.166 306.945C900.354 306.758 900.608 306.652 900.873 306.652C901.139 306.652 901.393 306.758 901.58 306.945C901.768 307.133 901.873 307.387 901.873 307.652C901.873 307.917 901.768 308.172 901.58 308.359L888.503 321.437C888.41 321.53 888.3 321.604 888.178 321.654C888.057 321.705 887.927 321.731 887.796 321.73Z" fill="#CCCCCC"/>
<path d="M380.5 411.997H378.972C378.962 411.812 376.91 406.997 376.91 406.997L375.67 403.997L374.85 401.997L373.61 398.997L372.19 395.547C372.154 395.392 372.066 395.253 371.94 395.154C371.815 395.054 371.66 395 371.5 395C371.34 395 371.185 395.054 371.06 395.154C370.934 395.253 370.846 395.392 370.81 395.547L369.39 398.997L368.15 401.997L367.33 403.997L366.09 406.997C366.09 406.997 364.038 411.812 364.028 411.997H362.5C362.102 411.997 361.721 412.156 361.439 412.437C361.158 412.718 361 413.1 361 413.497C361 413.895 361.158 414.277 361.439 414.558C361.721 414.839 362.102 414.997 362.5 414.997H380.5C380.898 414.997 381.279 414.839 381.561 414.558C381.842 414.277 382 413.895 382 413.497C382 413.1 381.842 412.718 381.561 412.437C381.279 412.156 380.898 411.997 380.5 411.997Z" fill="#584B4F"/>
<path d="M647.5 411H646.908C646.962 410.872 644.33 404.14 644.33 404.14L642.75 400.29L641.69 397.71L640.11 393.86L638.39 389.69C638.342 389.493 638.229 389.318 638.069 389.193C637.91 389.068 637.713 389 637.51 389C637.307 389 637.11 389.068 636.951 389.193C636.791 389.318 636.678 389.493 636.63 389.69L634.91 393.86L633.33 397.71L632.26 400.29L630.68 404.14C630.68 404.14 628.058 410.872 628.112 411H627.5C627.102 411 626.721 411.158 626.439 411.439C626.158 411.721 626 412.102 626 412.5C626 412.898 626.158 413.279 626.439 413.561C626.721 413.842 627.102 414 627.5 414H647.5C647.898 414 648.279 413.842 648.561 413.561C648.842 413.279 649 412.898 649 412.5C649 412.102 648.842 411.721 648.561 411.439C648.279 411.158 647.898 411 647.5 411Z" fill="#584B4F"/>
<path d="M374.85 401.998H368.15L369.39 398.998H373.61L374.85 401.998Z" fill="#F2F2F2"/>
<path d="M376.91 406.998H366.09L367.33 403.998H375.67L376.91 406.998Z" fill="#F2F2F2"/>
<path d="M641.69 397.71H633.33L634.91 393.86H640.11L641.69 397.71Z" fill="#F2F2F2"/>
<path d="M644.33 404.14H630.68L632.26 400.29H642.75L644.33 404.14Z" fill="#F2F2F2"/>
<path d="M586.225 349.878C586.235 349.85 586.234 349.819 586.222 349.792C586.21 349.764 586.187 349.743 586.16 349.732L584.26 349.053C584.241 349.046 584.22 349.044 584.201 349.048C584.181 349.051 584.162 349.06 584.147 349.073L581.223 351.681L581.207 351.698C581.199 351.71 581.193 351.723 581.189 351.737C581.186 351.751 581.186 351.765 581.188 351.78C581.19 351.794 581.195 351.807 581.203 351.819C581.211 351.832 581.221 351.842 581.232 351.85L582.256 352.619C582.275 352.633 582.299 352.641 582.323 352.64C582.346 352.64 582.37 352.632 582.389 352.618L586.185 349.93C586.204 349.917 586.217 349.899 586.225 349.878Z" fill="white"/>
<path d="M913.32 395.474C913.324 390.924 915.134 386.561 918.353 383.345C921.571 380.129 925.935 378.322 930.486 378.322C935.036 378.322 939.4 380.129 942.619 383.345C945.838 386.561 947.648 390.924 947.651 395.474" fill="#F2F2F2"/>
<path d="M930.485 395.474C930.362 395.474 930.244 395.425 930.157 395.338C930.07 395.251 930.022 395.133 930.021 395.01V385.964C930.021 385.841 930.07 385.723 930.157 385.636C930.244 385.549 930.362 385.5 930.485 385.5C930.608 385.5 930.726 385.549 930.813 385.636C930.9 385.723 930.949 385.841 930.949 385.964V395.01C930.949 395.133 930.9 395.251 930.813 395.338C930.726 395.425 930.608 395.474 930.485 395.474Z" fill="#CCCCCC"/>
<path d="M930.485 392.366C930.374 392.366 930.267 392.326 930.183 392.254L924.616 387.476C924.569 387.436 924.531 387.388 924.503 387.333C924.475 387.279 924.458 387.219 924.453 387.158C924.448 387.097 924.455 387.036 924.474 386.977C924.493 386.919 924.523 386.865 924.563 386.819C924.603 386.772 924.652 386.734 924.706 386.707C924.761 386.679 924.821 386.663 924.882 386.658C924.943 386.654 925.004 386.662 925.062 386.681C925.121 386.7 925.174 386.731 925.22 386.772L930.788 391.55C930.859 391.611 930.911 391.694 930.935 391.786C930.958 391.877 930.953 391.974 930.92 392.063C930.887 392.152 930.828 392.229 930.75 392.283C930.672 392.337 930.58 392.366 930.485 392.366Z" fill="#CCCCCC"/>
<path d="M966.208 395.474C966.211 390.924 968.021 386.561 971.24 383.345C974.459 380.129 978.823 378.322 983.373 378.322C987.924 378.322 992.288 380.129 995.506 383.345C998.725 386.561 1000.54 390.924 1000.54 395.474" fill="#F2F2F2"/>
<path d="M983.373 395.474C983.25 395.474 983.132 395.425 983.045 395.338C982.958 395.251 982.909 395.133 982.909 395.01V385.964C982.909 385.841 982.958 385.723 983.045 385.636C983.132 385.549 983.25 385.5 983.373 385.5C983.496 385.5 983.614 385.549 983.701 385.636C983.788 385.723 983.837 385.841 983.837 385.964V395.01C983.837 395.133 983.788 395.251 983.701 395.338C983.614 395.425 983.496 395.474 983.373 395.474Z" fill="#CCCCCC"/>
<path d="M983.373 392.366C983.262 392.366 983.155 392.326 983.071 392.254L977.504 387.476C977.457 387.436 977.419 387.388 977.39 387.333C977.362 387.279 977.345 387.219 977.34 387.158C977.335 387.097 977.343 387.036 977.362 386.977C977.381 386.919 977.411 386.865 977.451 386.818C977.491 386.772 977.54 386.734 977.594 386.706C977.649 386.679 977.709 386.662 977.77 386.658C977.831 386.654 977.892 386.661 977.95 386.681C978.009 386.7 978.062 386.731 978.108 386.772L983.676 391.55C983.748 391.611 983.799 391.694 983.823 391.786C983.846 391.877 983.841 391.974 983.809 392.063C983.776 392.152 983.716 392.229 983.638 392.283C983.561 392.337 983.468 392.366 983.373 392.366Z" fill="#CCCCCC"/>
</g>
<defs>
<clipPath id="clip0_1697_34">
<rect width="1047.8" height="450.309" fill="white"/>
</clipPath>
</defs>
</svg>
