<svg width="767" height="1226" viewBox="0 0 767 1226" fill="none" xmlns="http://www.w3.org/2000/svg">
<path d="M495.847 1132.12H185.998V1052.68H495.847V1132.12Z" fill="#333232"/>
<path d="M607.768 374.088V197.886H709.516V374.088H607.768Z" fill="#8C918F"/>
<path d="M558.298 385.278H557.197V96.7684H558.298V385.278Z" fill="#646566"/>
<path d="M593.816 385.278H592.715V96.7684H593.816V385.278Z" fill="#646566"/>
<path d="M629.332 385.278H628.229V96.7684H629.332V385.278Z" fill="#646566"/>
<path d="M767 135.353H526.079V134.034H767V135.353Z" fill="#646566"/>
<path d="M767 177.884H526.079V176.566H767V177.884Z" fill="#646566"/>
<path d="M767 220.417H526.079V219.096H767V220.417Z" fill="#646566"/>
<path d="M767 262.949H526.079V261.629H767V262.949Z" fill="#646566"/>
<path d="M767 305.48H526.079V304.16H767V305.48Z" fill="#646566"/>
<path d="M767 348.01H526.079V346.692H767V348.01Z" fill="#646566"/>
<path d="M645.583 491.248L608.536 535.611V533.078L645.583 488.715V491.248Z" fill="#8E908F"/>
<path d="M645.583 514.207L608.536 558.57V556.035L645.583 511.673V514.207Z" fill="#8E908F"/>
<path d="M645.583 537.164L608.536 581.528V578.994L645.583 534.631V537.164Z" fill="#8E908F"/>
<path d="M645.583 560.121L608.536 604.486V601.953L645.583 557.588V560.121Z" fill="#8E908F"/>
<path d="M645.583 583.08L608.536 627.443V624.908L645.583 580.546V583.08Z" fill="#8E908F"/>
<path d="M645.583 606.038L608.536 650.401V647.868L645.583 603.503V606.038Z" fill="#8E908F"/>
<path d="M645.583 628.995L608.536 673.358V670.823L645.583 626.462V628.995Z" fill="#8E908F"/>
<path d="M364.075 984.095L401.121 1028.46V1025.92L364.075 981.562V984.095Z" fill="#F5F5F4"/>
<path d="M364.075 1007.05L401.121 1051.42V1048.88L364.075 1004.52V1007.05Z" fill="#F5F5F4"/>
<path d="M364.075 1030.01L401.121 1074.37V1071.84L364.075 1027.48V1030.01Z" fill="#F5F5F4"/>
<path d="M364.075 1052.97L401.121 1097.33V1094.8L364.075 1050.43V1052.97Z" fill="#F5F5F4"/>
<path d="M364.075 1075.93L401.121 1120.29V1117.75L364.075 1073.39V1075.93Z" fill="#F5F5F4"/>
<path d="M364.075 1098.88L401.121 1143.25V1140.71L364.075 1096.35V1098.88Z" fill="#F5F5F4"/>
<path d="M78.6289 136.946C78.6289 138.258 79.5176 139.321 80.6118 139.321C81.7065 139.321 82.5941 138.258 82.5941 136.946C82.5941 135.635 81.7065 134.572 80.6118 134.572C79.5176 134.572 78.6289 135.635 78.6289 136.946Z" fill="#8C918F"/>
<path d="M100.484 136.946C100.484 138.258 101.373 139.321 102.468 139.321C103.562 139.321 104.449 138.258 104.449 136.946C104.449 135.635 103.562 134.572 102.468 134.572C101.373 134.572 100.484 135.635 100.484 136.946Z" fill="#8C918F"/>
<path d="M122.34 136.946C122.34 138.258 123.227 139.321 124.322 139.321C125.416 139.321 126.305 138.258 126.305 136.946C126.305 135.635 125.416 134.572 124.322 134.572C123.227 134.572 122.34 135.635 122.34 136.946Z" fill="#8C918F"/>
<path d="M144.195 136.946C144.195 138.258 145.083 139.321 146.177 139.321C147.273 139.321 148.16 138.258 148.16 136.946C148.16 135.635 147.273 134.572 146.177 134.572C145.083 134.572 144.195 135.635 144.195 136.946Z" fill="#8C918F"/>
<path d="M166.053 136.946C166.053 138.258 166.94 139.321 168.034 139.321C169.13 139.321 170.017 138.258 170.017 136.946C170.017 135.635 169.13 134.572 168.034 134.572C166.94 134.572 166.053 135.635 166.053 136.946Z" fill="#8C918F"/>
<path d="M187.907 136.946C187.907 138.258 188.794 139.321 189.89 139.321C190.985 139.321 191.872 138.258 191.872 136.946C191.872 135.635 190.985 134.572 189.89 134.572C188.794 134.572 187.907 135.635 187.907 136.946Z" fill="#8C918F"/>
<path d="M209.764 136.946C209.764 138.258 210.653 139.321 211.746 139.321C212.84 139.321 213.728 138.258 213.728 136.946C213.728 135.635 212.84 134.572 211.746 134.572C210.653 134.572 209.764 135.635 209.764 136.946Z" fill="#8C918F"/>
<path d="M231.62 136.946C231.62 138.258 232.508 139.321 233.603 139.321C234.697 139.321 235.584 138.258 235.584 136.946C235.584 135.635 234.697 134.572 233.603 134.572C232.508 134.572 231.62 135.635 231.62 136.946Z" fill="#8C918F"/>
<path d="M253.476 136.946C253.476 138.258 254.363 139.321 255.458 139.321C256.553 139.321 257.441 138.258 257.441 136.946C257.441 135.635 256.553 134.572 255.458 134.572C254.363 134.572 253.476 135.635 253.476 136.946Z" fill="#8C918F"/>
<path d="M275.332 136.946C275.332 138.258 276.219 139.321 277.313 139.321C278.41 139.321 279.297 138.258 279.297 136.946C279.297 135.635 278.41 134.572 277.313 134.572C276.219 134.572 275.332 135.635 275.332 136.946Z" fill="#8C918F"/>
<path d="M297.188 136.946C297.188 138.258 298.075 139.321 299.17 139.321C300.265 139.321 301.153 138.258 301.153 136.946C301.153 135.635 300.265 134.572 299.17 134.572C298.075 134.572 297.188 135.635 297.188 136.946Z" fill="#8C918F"/>
<path d="M78.6289 159.248C78.6289 160.559 79.5176 161.622 80.6118 161.622C81.7065 161.622 82.5941 160.559 82.5941 159.248C82.5941 157.936 81.7065 156.874 80.6118 156.874C79.5176 156.874 78.6289 157.936 78.6289 159.248Z" fill="#8C918F"/>
<path d="M100.484 159.248C100.484 160.559 101.373 161.622 102.468 161.622C103.562 161.622 104.449 160.559 104.449 159.248C104.449 157.936 103.562 156.874 102.468 156.874C101.373 156.874 100.484 157.936 100.484 159.248Z" fill="#8C918F"/>
<path d="M122.34 159.248C122.34 160.559 123.227 161.622 124.322 161.622C125.416 161.622 126.305 160.559 126.305 159.248C126.305 157.936 125.416 156.874 124.322 156.874C123.227 156.874 122.34 157.936 122.34 159.248Z" fill="#8C918F"/>
<path d="M144.195 159.248C144.195 160.559 145.083 161.622 146.177 161.622C147.273 161.622 148.16 160.559 148.16 159.248C148.16 157.936 147.273 156.874 146.177 156.874C145.083 156.874 144.195 157.936 144.195 159.248Z" fill="#8C918F"/>
<path d="M166.053 159.248C166.053 160.559 166.94 161.622 168.034 161.622C169.13 161.622 170.017 160.559 170.017 159.248C170.017 157.936 169.13 156.874 168.034 156.874C166.94 156.874 166.053 157.936 166.053 159.248Z" fill="#8C918F"/>
<path d="M187.907 159.248C187.907 160.559 188.794 161.622 189.89 161.622C190.985 161.622 191.872 160.559 191.872 159.248C191.872 157.936 190.985 156.874 189.89 156.874C188.794 156.874 187.907 157.936 187.907 159.248Z" fill="#8C918F"/>
<path d="M209.764 159.248C209.764 160.559 210.653 161.622 211.746 161.622C212.84 161.622 213.728 160.559 213.728 159.248C213.728 157.936 212.84 156.874 211.746 156.874C210.653 156.874 209.764 157.936 209.764 159.248Z" fill="#8C918F"/>
<path d="M231.62 159.248C231.62 160.559 232.508 161.622 233.603 161.622C234.697 161.622 235.584 160.559 235.584 159.248C235.584 157.936 234.697 156.874 233.603 156.874C232.508 156.874 231.62 157.936 231.62 159.248Z" fill="#8C918F"/>
<path d="M253.476 159.248C253.476 160.559 254.363 161.622 255.458 161.622C256.553 161.622 257.441 160.559 257.441 159.248C257.441 157.936 256.553 156.874 255.458 156.874C254.363 156.874 253.476 157.936 253.476 159.248Z" fill="#8C918F"/>
<path d="M275.332 159.248C275.332 160.559 276.219 161.622 277.313 161.622C278.41 161.622 279.297 160.559 279.297 159.248C279.297 157.936 278.41 156.874 277.313 156.874C276.219 156.874 275.332 157.936 275.332 159.248Z" fill="#8C918F"/>
<path d="M297.188 159.248C297.188 160.559 298.075 161.622 299.17 161.622C300.265 161.622 301.153 160.559 301.153 159.248C301.153 157.936 300.265 156.874 299.17 156.874C298.075 156.874 297.188 157.936 297.188 159.248Z" fill="#8C918F"/>
<path d="M78.6289 181.549C78.6289 182.859 79.5176 183.923 80.6118 183.923C81.7065 183.923 82.5941 182.859 82.5941 181.549C82.5941 180.237 81.7065 179.175 80.6118 179.175C79.5176 179.175 78.6289 180.237 78.6289 181.549Z" fill="#8C918F"/>
<path d="M100.484 181.549C100.484 182.859 101.373 183.923 102.468 183.923C103.562 183.923 104.449 182.859 104.449 181.549C104.449 180.237 103.562 179.175 102.468 179.175C101.373 179.175 100.484 180.237 100.484 181.549Z" fill="#8C918F"/>
<path d="M122.34 181.549C122.34 182.859 123.227 183.923 124.322 183.923C125.416 183.923 126.305 182.859 126.305 181.549C126.305 180.237 125.416 179.175 124.322 179.175C123.227 179.175 122.34 180.237 122.34 181.549Z" fill="#8C918F"/>
<path d="M144.195 181.549C144.195 182.859 145.083 183.923 146.177 183.923C147.273 183.923 148.16 182.859 148.16 181.549C148.16 180.237 147.273 179.175 146.177 179.175C145.083 179.175 144.195 180.237 144.195 181.549Z" fill="#8C918F"/>
<path d="M166.053 181.549C166.053 182.859 166.94 183.923 168.034 183.923C169.13 183.923 170.017 182.859 170.017 181.549C170.017 180.237 169.13 179.175 168.034 179.175C166.94 179.175 166.053 180.237 166.053 181.549Z" fill="#8C918F"/>
<path d="M187.907 181.549C187.907 182.859 188.794 183.923 189.89 183.923C190.985 183.923 191.872 182.859 191.872 181.549C191.872 180.237 190.985 179.175 189.89 179.175C188.794 179.175 187.907 180.237 187.907 181.549Z" fill="#8C918F"/>
<path d="M209.764 181.549C209.764 182.859 210.653 183.923 211.746 183.923C212.84 183.923 213.728 182.859 213.728 181.549C213.728 180.237 212.84 179.175 211.746 179.175C210.653 179.175 209.764 180.237 209.764 181.549Z" fill="#8C918F"/>
<path d="M231.62 181.549C231.62 182.859 232.508 183.923 233.603 183.923C234.697 183.923 235.584 182.859 235.584 181.549C235.584 180.237 234.697 179.175 233.603 179.175C232.508 179.175 231.62 180.237 231.62 181.549Z" fill="#8C918F"/>
<path d="M253.476 181.549C253.476 182.859 254.363 183.923 255.458 183.923C256.553 183.923 257.441 182.859 257.441 181.549C257.441 180.237 256.553 179.175 255.458 179.175C254.363 179.175 253.476 180.237 253.476 181.549Z" fill="#8C918F"/>
<path d="M275.332 181.549C275.332 182.859 276.219 183.923 277.313 183.923C278.41 183.923 279.297 182.859 279.297 181.549C279.297 180.237 278.41 179.175 277.313 179.175C276.219 179.175 275.332 180.237 275.332 181.549Z" fill="#8C918F"/>
<path d="M297.188 181.549C297.188 182.859 298.075 183.923 299.17 183.923C300.265 183.923 301.153 182.859 301.153 181.549C301.153 180.237 300.265 179.175 299.17 179.175C298.075 179.175 297.188 180.237 297.188 181.549Z" fill="#8C918F"/>
<path d="M78.6289 203.848C78.6289 205.16 79.5176 206.223 80.6118 206.223C81.7065 206.223 82.5941 205.16 82.5941 203.848C82.5941 202.539 81.7065 201.476 80.6118 201.476C79.5176 201.476 78.6289 202.539 78.6289 203.848Z" fill="#8C918F"/>
<path d="M100.484 203.848C100.484 205.16 101.373 206.223 102.468 206.223C103.562 206.223 104.449 205.16 104.449 203.848C104.449 202.539 103.562 201.476 102.468 201.476C101.373 201.476 100.484 202.539 100.484 203.848Z" fill="#8C918F"/>
<path d="M122.34 203.848C122.34 205.16 123.227 206.223 124.322 206.223C125.416 206.223 126.305 205.16 126.305 203.848C126.305 202.539 125.416 201.476 124.322 201.476C123.227 201.476 122.34 202.539 122.34 203.848Z" fill="#8C918F"/>
<path d="M144.195 203.848C144.195 205.16 145.083 206.223 146.177 206.223C147.273 206.223 148.16 205.16 148.16 203.848C148.16 202.539 147.273 201.476 146.177 201.476C145.083 201.476 144.195 202.539 144.195 203.848Z" fill="#8C918F"/>
<path d="M166.053 203.848C166.053 205.16 166.94 206.223 168.034 206.223C169.13 206.223 170.017 205.16 170.017 203.848C170.017 202.539 169.13 201.476 168.034 201.476C166.94 201.476 166.053 202.539 166.053 203.848Z" fill="#8C918F"/>
<path d="M187.907 203.848C187.907 205.16 188.794 206.223 189.89 206.223C190.985 206.223 191.872 205.16 191.872 203.848C191.872 202.539 190.985 201.476 189.89 201.476C188.794 201.476 187.907 202.539 187.907 203.848Z" fill="#8C918F"/>
<path d="M209.764 203.848C209.764 205.16 210.653 206.223 211.746 206.223C212.84 206.223 213.728 205.16 213.728 203.848C213.728 202.539 212.84 201.476 211.746 201.476C210.653 201.476 209.764 202.539 209.764 203.848Z" fill="#8C918F"/>
<path d="M231.62 203.848C231.62 205.16 232.508 206.223 233.603 206.223C234.697 206.223 235.584 205.16 235.584 203.848C235.584 202.539 234.697 201.476 233.603 201.476C232.508 201.476 231.62 202.539 231.62 203.848Z" fill="#8C918F"/>
<path d="M253.476 203.848C253.476 205.16 254.363 206.223 255.458 206.223C256.553 206.223 257.441 205.16 257.441 203.848C257.441 202.539 256.553 201.476 255.458 201.476C254.363 201.476 253.476 202.539 253.476 203.848Z" fill="#8C918F"/>
<path d="M275.332 203.848C275.332 205.16 276.219 206.223 277.313 206.223C278.41 206.223 279.297 205.16 279.297 203.848C279.297 202.539 278.41 201.476 277.313 201.476C276.219 201.476 275.332 202.539 275.332 203.848Z" fill="#8C918F"/>
<path d="M297.188 203.848C297.188 205.16 298.075 206.223 299.17 206.223C300.265 206.223 301.153 205.16 301.153 203.848C301.153 202.539 300.265 201.476 299.17 201.476C298.075 201.476 297.188 202.539 297.188 203.848Z" fill="#8C918F"/>
<path d="M78.6289 226.148C78.6289 227.459 79.5176 228.522 80.6118 228.522C81.7065 228.522 82.5941 227.459 82.5941 226.148C82.5941 224.836 81.7065 223.773 80.6118 223.773C79.5176 223.773 78.6289 224.836 78.6289 226.148Z" fill="#8C918F"/>
<path d="M100.484 226.148C100.484 227.459 101.373 228.522 102.468 228.522C103.562 228.522 104.449 227.459 104.449 226.148C104.449 224.836 103.562 223.773 102.468 223.773C101.373 223.773 100.484 224.836 100.484 226.148Z" fill="#8C918F"/>
<path d="M122.34 226.148C122.34 227.459 123.227 228.522 124.322 228.522C125.416 228.522 126.305 227.459 126.305 226.148C126.305 224.836 125.416 223.773 124.322 223.773C123.227 223.773 122.34 224.836 122.34 226.148Z" fill="#8C918F"/>
<path d="M144.195 226.148C144.195 227.459 145.083 228.522 146.177 228.522C147.273 228.522 148.16 227.459 148.16 226.148C148.16 224.836 147.273 223.773 146.177 223.773C145.083 223.773 144.195 224.836 144.195 226.148Z" fill="#8C918F"/>
<path d="M166.053 226.148C166.053 227.459 166.94 228.522 168.034 228.522C169.13 228.522 170.017 227.459 170.017 226.148C170.017 224.836 169.13 223.773 168.034 223.773C166.94 223.773 166.053 224.836 166.053 226.148Z" fill="#8C918F"/>
<path d="M187.907 226.148C187.907 227.459 188.794 228.522 189.89 228.522C190.985 228.522 191.872 227.459 191.872 226.148C191.872 224.836 190.985 223.773 189.89 223.773C188.794 223.773 187.907 224.836 187.907 226.148Z" fill="#8C918F"/>
<path d="M209.764 226.148C209.764 227.459 210.653 228.522 211.746 228.522C212.84 228.522 213.728 227.459 213.728 226.148C213.728 224.836 212.84 223.773 211.746 223.773C210.653 223.773 209.764 224.836 209.764 226.148Z" fill="#8C918F"/>
<path d="M231.62 226.148C231.62 227.459 232.508 228.522 233.603 228.522C234.697 228.522 235.584 227.459 235.584 226.148C235.584 224.836 234.697 223.773 233.603 223.773C232.508 223.773 231.62 224.836 231.62 226.148Z" fill="#8C918F"/>
<path d="M253.476 226.148C253.476 227.459 254.363 228.522 255.458 228.522C256.553 228.522 257.441 227.459 257.441 226.148C257.441 224.836 256.553 223.773 255.458 223.773C254.363 223.773 253.476 224.836 253.476 226.148Z" fill="#8C918F"/>
<path d="M275.332 226.148C275.332 227.459 276.219 228.522 277.313 228.522C278.41 228.522 279.297 227.459 279.297 226.148C279.297 224.836 278.41 223.773 277.313 223.773C276.219 223.773 275.332 224.836 275.332 226.148Z" fill="#8C918F"/>
<path d="M297.188 226.148C297.188 227.459 298.075 228.522 299.17 228.522C300.265 228.522 301.153 227.459 301.153 226.148C301.153 224.836 300.265 223.773 299.17 223.773C298.075 223.773 297.188 224.836 297.188 226.148Z" fill="#8C918F"/>
<path d="M78.6289 248.45C78.6289 249.761 79.5176 250.822 80.6118 250.822C81.7065 250.822 82.5941 249.761 82.5941 248.45C82.5941 247.138 81.7065 246.075 80.6118 246.075C79.5176 246.075 78.6289 247.138 78.6289 248.45Z" fill="#8C918F"/>
<path d="M100.484 248.45C100.484 249.761 101.373 250.822 102.468 250.822C103.562 250.822 104.449 249.761 104.449 248.45C104.449 247.138 103.562 246.075 102.468 246.075C101.373 246.075 100.484 247.138 100.484 248.45Z" fill="#8C918F"/>
<path d="M122.34 248.45C122.34 249.761 123.227 250.822 124.322 250.822C125.416 250.822 126.305 249.761 126.305 248.45C126.305 247.138 125.416 246.075 124.322 246.075C123.227 246.075 122.34 247.138 122.34 248.45Z" fill="#8C918F"/>
<path d="M144.195 248.45C144.195 249.761 145.083 250.822 146.177 250.822C147.273 250.822 148.16 249.761 148.16 248.45C148.16 247.138 147.273 246.075 146.177 246.075C145.083 246.075 144.195 247.138 144.195 248.45Z" fill="#8C918F"/>
<path d="M166.053 248.45C166.053 249.761 166.94 250.822 168.034 250.822C169.13 250.822 170.017 249.761 170.017 248.45C170.017 247.138 169.13 246.075 168.034 246.075C166.94 246.075 166.053 247.138 166.053 248.45Z" fill="#8C918F"/>
<path d="M187.907 248.45C187.907 249.761 188.794 250.822 189.89 250.822C190.985 250.822 191.872 249.761 191.872 248.45C191.872 247.138 190.985 246.075 189.89 246.075C188.794 246.075 187.907 247.138 187.907 248.45Z" fill="#8C918F"/>
<path d="M209.764 248.45C209.764 249.761 210.653 250.822 211.746 250.822C212.84 250.822 213.728 249.761 213.728 248.45C213.728 247.138 212.84 246.075 211.746 246.075C210.653 246.075 209.764 247.138 209.764 248.45Z" fill="#8C918F"/>
<path d="M231.62 248.45C231.62 249.761 232.508 250.822 233.603 250.822C234.697 250.822 235.584 249.761 235.584 248.45C235.584 247.138 234.697 246.075 233.603 246.075C232.508 246.075 231.62 247.138 231.62 248.45Z" fill="#8C918F"/>
<path d="M253.476 248.45C253.476 249.761 254.363 250.822 255.458 250.822C256.553 250.822 257.441 249.761 257.441 248.45C257.441 247.138 256.553 246.075 255.458 246.075C254.363 246.075 253.476 247.138 253.476 248.45Z" fill="#8C918F"/>
<path d="M275.332 248.45C275.332 249.761 276.219 250.822 277.313 250.822C278.41 250.822 279.297 249.761 279.297 248.45C279.297 247.138 278.41 246.075 277.313 246.075C276.219 246.075 275.332 247.138 275.332 248.45Z" fill="#8C918F"/>
<path d="M297.188 248.45C297.188 249.761 298.075 250.822 299.17 250.822C300.265 250.822 301.153 249.761 301.153 248.45C301.153 247.138 300.265 246.075 299.17 246.075C298.075 246.075 297.188 247.138 297.188 248.45Z" fill="#8C918F"/>
<path d="M120.419 468.055C121.316 468.055 122.044 468.927 122.044 470.001C122.044 471.076 121.316 471.947 120.419 471.947C119.521 471.947 118.793 471.076 118.793 470.001C118.793 468.927 119.521 468.055 120.419 468.055Z" fill="#F5F5F4"/>
<path d="M120.419 503.818C121.316 503.818 122.044 504.69 122.044 505.764C122.044 506.839 121.316 507.71 120.419 507.71C119.521 507.71 118.793 506.839 118.793 505.764C118.793 504.69 119.521 503.818 120.419 503.818Z" fill="#F5F5F4"/>
<path d="M120.419 539.58C121.316 539.58 122.044 540.45 122.044 541.527C122.044 542.601 121.316 543.473 120.419 543.473C119.521 543.473 118.793 542.601 118.793 541.527C118.793 540.45 119.521 539.58 120.419 539.58Z" fill="#F5F5F4"/>
<path d="M120.419 575.343C121.316 575.343 122.044 576.213 122.044 577.288C122.044 578.364 121.316 579.234 120.419 579.234C119.521 579.234 118.793 578.364 118.793 577.288C118.793 576.213 119.521 575.343 120.419 575.343Z" fill="#F5F5F4"/>
<path d="M120.419 611.105C121.316 611.105 122.044 611.976 122.044 613.051C122.044 614.126 121.316 614.997 120.419 614.997C119.521 614.997 118.793 614.126 118.793 613.051C118.793 611.976 119.521 611.105 120.419 611.105Z" fill="#F5F5F4"/>
<path d="M120.419 646.869C121.316 646.869 122.044 647.741 122.044 648.815C122.044 649.89 121.316 650.761 120.419 650.761C119.521 650.761 118.793 649.89 118.793 648.815C118.793 647.741 119.521 646.869 120.419 646.869Z" fill="#F5F5F4"/>
<path d="M120.419 682.631C121.316 682.631 122.044 683.503 122.044 684.577C122.044 685.652 121.316 686.523 120.419 686.523C119.521 686.523 118.793 685.652 118.793 684.577C118.793 683.503 119.521 682.631 120.419 682.631Z" fill="#F5F5F4"/>
<path d="M120.419 718.392C121.316 718.392 122.044 719.263 122.044 720.34C122.044 721.412 121.316 722.286 120.419 722.286C119.521 722.286 118.793 721.412 118.793 720.34C118.793 719.263 119.521 718.392 120.419 718.392Z" fill="#F5F5F4"/>
<path d="M120.419 754.156C121.316 754.156 122.044 755.027 122.044 756.102C122.044 757.176 121.316 758.048 120.419 758.048C119.521 758.048 118.793 757.176 118.793 756.102C118.793 755.027 119.521 754.156 120.419 754.156Z" fill="#F5F5F4"/>
<path d="M120.419 789.919C121.316 789.919 122.044 790.79 122.044 791.865C122.044 792.941 121.316 793.811 120.419 793.811C119.521 793.811 118.793 792.941 118.793 791.865C118.793 790.79 119.521 789.919 120.419 789.919Z" fill="#F5F5F4"/>
<path d="M120.419 825.682C121.316 825.682 122.044 826.554 122.044 827.628C122.044 828.703 121.316 829.574 120.419 829.574C119.521 829.574 118.793 828.703 118.793 827.628C118.793 826.554 119.521 825.682 120.419 825.682Z" fill="#F5F5F4"/>
<path d="M120.419 861.443C121.316 861.443 122.044 862.316 122.044 863.389C122.044 864.465 121.316 865.337 120.419 865.337C119.521 865.337 118.793 864.465 118.793 863.389C118.793 862.316 119.521 861.443 120.419 861.443Z" fill="#F5F5F4"/>
<path d="M120.419 897.206C121.316 897.206 122.044 898.079 122.044 899.152C122.044 900.228 121.316 901.1 120.419 901.1C119.521 901.1 118.793 900.228 118.793 899.152C118.793 898.079 119.521 897.206 120.419 897.206Z" fill="#333232"/>
<path d="M94.9733 468.055C95.8697 468.055 96.5973 468.927 96.5973 470.001C96.5973 471.076 95.8697 471.947 94.9733 471.947C94.0746 471.947 93.3477 471.076 93.3477 470.001C93.3477 468.927 94.0746 468.055 94.9733 468.055Z" fill="#F5F5F4"/>
<path d="M94.9733 503.818C95.8697 503.818 96.5973 504.69 96.5973 505.764C96.5973 506.839 95.8697 507.71 94.9733 507.71C94.0746 507.71 93.3477 506.839 93.3477 505.764C93.3477 504.69 94.0746 503.818 94.9733 503.818Z" fill="#F5F5F4"/>
<path d="M94.9733 539.58C95.8697 539.58 96.5973 540.45 96.5973 541.527C96.5973 542.601 95.8697 543.473 94.9733 543.473C94.0746 543.473 93.3477 542.601 93.3477 541.527C93.3477 540.45 94.0746 539.58 94.9733 539.58Z" fill="#F5F5F4"/>
<path d="M94.9733 575.343C95.8697 575.343 96.5973 576.213 96.5973 577.288C96.5973 578.364 95.8697 579.234 94.9733 579.234C94.0746 579.234 93.3477 578.364 93.3477 577.288C93.3477 576.213 94.0746 575.343 94.9733 575.343Z" fill="#F5F5F4"/>
<path d="M94.9733 611.105C95.8697 611.105 96.5973 611.976 96.5973 613.051C96.5973 614.126 95.8697 614.997 94.9733 614.997C94.0746 614.997 93.3477 614.126 93.3477 613.051C93.3477 611.976 94.0746 611.105 94.9733 611.105Z" fill="#F5F5F4"/>
<path d="M94.9733 646.869C95.8697 646.869 96.5973 647.741 96.5973 648.815C96.5973 649.89 95.8697 650.761 94.9733 650.761C94.0746 650.761 93.3477 649.89 93.3477 648.815C93.3477 647.741 94.0746 646.869 94.9733 646.869Z" fill="#F5F5F4"/>
<path d="M94.9733 682.631C95.8697 682.631 96.5973 683.503 96.5973 684.577C96.5973 685.652 95.8697 686.523 94.9733 686.523C94.0746 686.523 93.3477 685.652 93.3477 684.577C93.3477 683.503 94.0746 682.631 94.9733 682.631Z" fill="#F5F5F4"/>
<path d="M94.9733 718.392C95.8697 718.392 96.5973 719.263 96.5973 720.34C96.5973 721.412 95.8697 722.286 94.9733 722.286C94.0746 722.286 93.3477 721.412 93.3477 720.34C93.3477 719.263 94.0746 718.392 94.9733 718.392Z" fill="#F5F5F4"/>
<path d="M94.9733 754.156C95.8697 754.156 96.5973 755.027 96.5973 756.102C96.5973 757.176 95.8697 758.048 94.9733 758.048C94.0746 758.048 93.3477 757.176 93.3477 756.102C93.3477 755.027 94.0746 754.156 94.9733 754.156Z" fill="#F5F5F4"/>
<path d="M94.9733 789.919C95.8697 789.919 96.5973 790.79 96.5973 791.865C96.5973 792.941 95.8697 793.811 94.9733 793.811C94.0746 793.811 93.3477 792.941 93.3477 791.865C93.3477 790.79 94.0746 789.919 94.9733 789.919Z" fill="#F5F5F4"/>
<path d="M94.9733 825.682C95.8697 825.682 96.5973 826.554 96.5973 827.628C96.5973 828.703 95.8697 829.574 94.9733 829.574C94.0746 829.574 93.3477 828.703 93.3477 827.628C93.3477 826.554 94.0746 825.682 94.9733 825.682Z" fill="#F5F5F4"/>
<path d="M94.9733 861.443C95.8697 861.443 96.5973 862.316 96.5973 863.389C96.5973 864.465 95.8697 865.337 94.9733 865.337C94.0746 865.337 93.3477 864.465 93.3477 863.389C93.3477 862.316 94.0746 861.443 94.9733 861.443Z" fill="#F5F5F4"/>
<path d="M94.9733 897.206C95.8697 897.206 96.5973 898.079 96.5973 899.152C96.5973 900.228 95.8697 901.1 94.9733 901.1C94.0746 901.1 93.3477 900.228 93.3477 899.152C93.3477 898.079 94.0746 897.206 94.9733 897.206Z" fill="#333232"/>
<path d="M69.5269 468.055C70.425 468.055 71.1526 468.927 71.1526 470.001C71.1526 471.076 70.425 471.947 69.5269 471.947C68.6299 471.947 67.9023 471.076 67.9023 470.001C67.9023 468.927 68.6299 468.055 69.5269 468.055Z" fill="#F5F5F4"/>
<path d="M69.5269 503.818C70.425 503.818 71.1526 504.69 71.1526 505.764C71.1526 506.839 70.425 507.71 69.5269 507.71C68.6299 507.71 67.9023 506.839 67.9023 505.764C67.9023 504.69 68.6299 503.818 69.5269 503.818Z" fill="#F5F5F4"/>
<path d="M69.5269 539.58C70.425 539.58 71.1526 540.45 71.1526 541.527C71.1526 542.601 70.425 543.473 69.5269 543.473C68.6299 543.473 67.9023 542.601 67.9023 541.527C67.9023 540.45 68.6299 539.58 69.5269 539.58Z" fill="#F5F5F4"/>
<path d="M69.5269 575.343C70.425 575.343 71.1526 576.213 71.1526 577.288C71.1526 578.364 70.425 579.234 69.5269 579.234C68.6299 579.234 67.9023 578.364 67.9023 577.288C67.9023 576.213 68.6299 575.343 69.5269 575.343Z" fill="#F5F5F4"/>
<path d="M69.5269 611.105C70.425 611.105 71.1526 611.976 71.1526 613.051C71.1526 614.126 70.425 614.997 69.5269 614.997C68.6299 614.997 67.9023 614.126 67.9023 613.051C67.9023 611.976 68.6299 611.105 69.5269 611.105Z" fill="#F5F5F4"/>
<path d="M69.5269 646.869C70.425 646.869 71.1526 647.741 71.1526 648.815C71.1526 649.89 70.425 650.761 69.5269 650.761C68.6299 650.761 67.9023 649.89 67.9023 648.815C67.9023 647.741 68.6299 646.869 69.5269 646.869Z" fill="#F5F5F4"/>
<path d="M69.5269 682.631C70.425 682.631 71.1526 683.503 71.1526 684.577C71.1526 685.652 70.425 686.523 69.5269 686.523C68.6299 686.523 67.9023 685.652 67.9023 684.577C67.9023 683.503 68.6299 682.631 69.5269 682.631Z" fill="#F5F5F4"/>
<path d="M69.5269 718.392C70.425 718.392 71.1526 719.263 71.1526 720.34C71.1526 721.412 70.425 722.286 69.5269 722.286C68.6299 722.286 67.9023 721.412 67.9023 720.34C67.9023 719.263 68.6299 718.392 69.5269 718.392Z" fill="#F5F5F4"/>
<path d="M69.5269 754.156C70.425 754.156 71.1526 755.027 71.1526 756.102C71.1526 757.176 70.425 758.048 69.5269 758.048C68.6299 758.048 67.9023 757.176 67.9023 756.102C67.9023 755.027 68.6299 754.156 69.5269 754.156Z" fill="#F5F5F4"/>
<path d="M69.5269 789.919C70.425 789.919 71.1526 790.79 71.1526 791.865C71.1526 792.941 70.425 793.811 69.5269 793.811C68.6299 793.811 67.9023 792.941 67.9023 791.865C67.9023 790.79 68.6299 789.919 69.5269 789.919Z" fill="#F5F5F4"/>
<path d="M69.5269 825.682C70.425 825.682 71.1526 826.554 71.1526 827.628C71.1526 828.703 70.425 829.574 69.5269 829.574C68.6299 829.574 67.9023 828.703 67.9023 827.628C67.9023 826.554 68.6299 825.682 69.5269 825.682Z" fill="#F5F5F4"/>
<path d="M69.5269 861.443C70.425 861.443 71.1526 862.316 71.1526 863.389C71.1526 864.465 70.425 865.337 69.5269 865.337C68.6299 865.337 67.9023 864.465 67.9023 863.389C67.9023 862.316 68.6299 861.443 69.5269 861.443Z" fill="#F5F5F4"/>
<path d="M69.5269 897.206C70.425 897.206 71.1526 898.079 71.1526 899.152C71.1526 900.228 70.425 901.1 69.5269 901.1C68.6299 901.1 67.9023 900.228 67.9023 899.152C67.9023 898.079 68.6299 897.206 69.5269 897.206Z" fill="#F5F5F4"/>
<path d="M83.4449 1016.82C83.409 1015.2 84.4745 1013.85 85.8214 1013.8C87.1821 1013.76 88.3082 1015.02 88.344 1016.65C88.3938 1018.26 87.3284 1019.61 85.9694 1019.67C85.9445 1019.67 85.9191 1019.67 85.8942 1019.67C84.5728 1019.67 83.4947 1018.41 83.4449 1016.82ZM95.534 1019.98C94.1871 1019.83 93.1825 1018.42 93.2929 1016.81C93.4033 1015.18 94.5912 1013.99 95.9382 1014.13C97.2856 1014.26 98.2897 1015.68 98.1799 1017.29C98.0695 1018.82 96.9914 1019.98 95.73 1019.98C95.6693 1019.98 95.5965 1019.98 95.534 1019.98ZM73.6716 1018.17C73.4878 1016.56 74.4069 1015.08 75.7538 1014.85C77.0886 1014.61 78.3389 1015.72 78.5221 1017.34C78.7181 1018.94 77.7879 1020.42 76.4526 1020.65C76.3296 1020.67 76.2192 1020.68 76.0977 1020.68C74.8971 1020.68 73.8565 1019.63 73.6716 1018.17ZM104.988 1021.56V1021.58C103.666 1021.25 102.809 1019.7 103.066 1018.11C103.335 1016.53 104.622 1015.49 105.957 1015.81C107.279 1016.13 108.137 1017.67 107.88 1019.26C107.646 1020.65 106.618 1021.62 105.479 1021.62C105.32 1021.62 105.161 1021.61 104.988 1021.56ZM64.0953 1020.84C63.7519 1019.27 64.5231 1017.67 65.8341 1017.26C67.144 1016.84 68.4799 1017.78 68.8343 1019.35C69.1766 1020.91 68.3944 1022.51 67.0833 1022.93C66.8747 1023 66.6665 1023.03 66.4579 1023.03C65.3677 1023.03 64.3768 1022.15 64.0953 1020.84ZM114.249 1024.45C112.962 1023.95 112.252 1022.3 112.668 1020.75C113.085 1019.21 114.468 1018.36 115.754 1018.86C117.04 1019.36 117.751 1021.02 117.335 1022.56C116.992 1023.8 116.036 1024.6 114.995 1024.6C114.75 1024.6 114.493 1024.55 114.249 1024.45ZM54.8231 1024.82C54.3329 1023.31 54.9584 1021.61 56.2197 1021.02C57.4684 1020.43 58.8898 1021.17 59.3921 1022.68C59.8823 1024.19 59.2569 1025.89 57.9955 1026.48C57.7019 1026.62 57.4077 1026.68 57.1013 1026.68C56.1215 1026.68 55.204 1025.98 54.8231 1024.82ZM123.165 1028.59C121.927 1027.91 121.389 1026.18 121.952 1024.7C122.515 1023.23 123.96 1022.57 125.185 1023.25C125.185 1023.25 125.185 1023.25 125.197 1023.25C126.422 1023.92 126.974 1025.65 126.409 1027.13C125.994 1028.22 125.1 1028.85 124.181 1028.85C123.838 1028.85 123.495 1028.76 123.165 1028.59ZM46.0047 1030.04C45.3682 1028.6 45.8209 1026.83 47.0215 1026.08C48.21 1025.31 49.6922 1025.86 50.3281 1027.28C50.9657 1028.72 50.5119 1030.5 49.3124 1031.26C48.9442 1031.49 48.5523 1031.59 48.1725 1031.59C47.2909 1031.59 46.4463 1031.04 46.0047 1030.04ZM131.627 1033.93H131.615C130.464 1033.09 130.084 1031.29 130.783 1029.89C131.481 1028.51 132.987 1028.06 134.152 1028.89C135.302 1029.73 135.682 1031.54 134.984 1032.93C134.531 1033.84 133.71 1034.35 132.876 1034.35C132.449 1034.35 132.019 1034.2 131.627 1033.93ZM37.7384 1036.43C36.9672 1035.1 37.2481 1033.26 38.3638 1032.36C39.4772 1031.43 41.008 1031.77 41.7801 1033.1C42.5393 1034.44 42.2576 1036.27 41.1432 1037.18C40.7147 1037.53 40.2362 1037.71 39.7587 1037.71C38.9749 1037.71 38.2159 1037.25 37.7384 1036.43ZM139.515 1040.38C138.449 1039.4 138.24 1037.55 139.074 1036.27C139.895 1034.98 141.438 1034.75 142.503 1035.73C143.581 1036.71 143.777 1038.56 142.956 1039.84C142.466 1040.6 141.744 1040.98 141.009 1040.98C140.494 1040.98 139.968 1040.79 139.515 1040.38ZM30.1328 1043.91C29.2384 1042.68 29.3495 1040.83 30.3645 1039.76C30.3645 1039.76 30.3645 1039.76 30.3645 1039.78C31.394 1038.71 32.9369 1038.84 33.819 1040.06C34.7134 1041.27 34.6029 1043.12 33.5855 1044.19C33.1207 1044.67 32.5456 1044.91 31.9819 1044.91C31.2964 1044.91 30.6101 1044.57 30.1328 1043.91ZM146.754 1047.86C145.785 1046.74 145.762 1044.88 146.705 1043.72C147.635 1042.55 149.19 1042.52 150.158 1043.65C151.137 1044.78 151.162 1046.64 150.219 1047.8C149.742 1048.39 149.091 1048.69 148.455 1048.69C147.843 1048.69 147.23 1048.41 146.754 1047.86ZM23.2739 1052.36C22.282 1051.28 22.2075 1049.41 23.1265 1048.23C24.0329 1047.02 25.5885 1046.95 26.5811 1048.04C27.5851 1049.13 27.6465 1051 26.7395 1052.19C26.2493 1052.82 25.5885 1053.14 24.9273 1053.14C24.3393 1053.14 23.7392 1052.89 23.2739 1052.36ZM153.231 1056.28C152.375 1055.03 152.523 1053.18 153.575 1052.15C154.616 1051.13 156.159 1051.3 157.017 1052.55C157.875 1053.81 157.727 1055.66 156.686 1056.69C156.221 1057.13 155.669 1057.35 155.131 1057.35C154.42 1057.35 153.722 1056.98 153.231 1056.28ZM17.2725 1061.7C16.1712 1060.75 15.9255 1058.92 16.7204 1057.61C17.5181 1056.29 19.0483 1056.01 20.1512 1056.95C21.2415 1057.91 21.4854 1059.74 20.6894 1061.06C20.2119 1061.85 19.465 1062.26 18.7049 1062.26C18.2036 1062.26 17.702 1062.09 17.2725 1061.7ZM158.865 1065.52C158.131 1064.17 158.461 1062.35 159.601 1061.47C160.739 1060.59 162.246 1060.98 162.982 1062.34C163.716 1063.7 163.397 1065.52 162.259 1066.4C161.842 1066.72 161.389 1066.87 160.935 1066.87C160.128 1066.87 159.344 1066.4 158.865 1065.52ZM12.1774 1071.81C11.0017 1071 10.5848 1069.21 11.2583 1067.8C11.9208 1066.4 13.4156 1065.9 14.5908 1066.69C15.7655 1067.48 16.1823 1069.27 15.5209 1070.68V1070.69C15.0688 1071.65 14.2348 1072.18 13.378 1072.18C12.974 1072.18 12.5567 1072.06 12.1774 1071.81ZM163.593 1075.48C162.993 1074.02 163.482 1072.26 164.696 1071.54C165.907 1070.83 167.379 1071.41 167.977 1072.86C167.977 1072.86 167.977 1072.86 167.977 1072.88C168.578 1074.33 168.088 1076.08 166.874 1076.8C166.52 1077 166.153 1077.11 165.786 1077.11C164.892 1077.11 164.022 1076.5 163.593 1075.48ZM8.09918 1082.53C6.85052 1081.9 6.26251 1080.18 6.78806 1078.69C7.31587 1077.19 8.7604 1076.49 9.9969 1077.12C11.2473 1077.75 11.8351 1079.48 11.308 1080.96C10.916 1082.09 10.0091 1082.76 9.05405 1082.76C8.73552 1082.76 8.40555 1082.69 8.09918 1082.53ZM167.329 1086.01C166.874 1084.48 167.538 1082.79 168.811 1082.25C170.084 1081.71 171.482 1082.5 171.946 1084.03C172.401 1085.55 171.738 1087.22 170.464 1087.77C170.195 1087.88 169.913 1087.94 169.631 1087.94C168.627 1087.94 167.696 1087.19 167.329 1086.01ZM5.06189 1093.75C3.76363 1093.3 3.02893 1091.67 3.39593 1090.11C3.7885 1088.56 5.14753 1087.66 6.43364 1088.12C7.74476 1088.57 8.4789 1090.2 8.11176 1091.76C7.79281 1093.03 6.81349 1093.87 5.74812 1093.87C5.52668 1093.87 5.29549 1093.82 5.06189 1093.75ZM170.035 1096.98C169.73 1095.41 170.55 1093.82 171.873 1093.46C173.183 1093.09 174.506 1094.07 174.811 1095.64C175.118 1097.23 174.298 1098.8 172.987 1099.16C172.791 1099.22 172.607 1099.25 172.424 1099.25C171.309 1099.25 170.305 1098.33 170.035 1096.98ZM3.13986 1105.31C1.80401 1105.03 0.910759 1103.52 1.12994 1101.92C1.36353 1100.32 2.62477 1099.25 3.95963 1099.51C5.29549 1099.79 6.18973 1101.3 5.95628 1102.9C5.76027 1104.34 4.71977 1105.35 3.54219 1105.35C3.40865 1105.35 3.27341 1105.34 3.13986 1105.31ZM171.677 1108.26C171.518 1106.64 172.485 1105.19 173.833 1105C175.18 1104.82 176.392 1105.97 176.539 1107.58C176.698 1109.19 175.743 1110.65 174.396 1110.82C174.298 1110.84 174.2 1110.85 174.115 1110.85C172.877 1110.85 171.824 1109.75 171.677 1108.26ZM2.30568 1117.06C0.958807 1116.95 -0.0706744 1115.58 0.00379873 1113.96C0.0772826 1112.33 1.22815 1111.1 2.57517 1111.19C3.93476 1111.28 4.96368 1112.67 4.89076 1114.28C4.81798 1115.84 3.73989 1117.06 2.44106 1117.06C2.40403 1117.06 2.3543 1117.06 2.30568 1117.06ZM172.241 1119.9C172.241 1119.86 172.241 1119.83 172.241 1119.78C172.241 1119.75 172.241 1119.72 172.241 1119.68C172.228 1118.07 173.331 1116.75 174.677 1116.75C176.037 1116.75 177.127 1118.05 177.138 1119.68C177.138 1119.71 177.138 1119.75 177.138 1119.78C177.138 1119.83 177.138 1119.86 177.138 1119.9C177.138 1121.51 176.037 1122.83 174.69 1122.83C173.331 1122.83 172.241 1121.51 172.241 1119.9ZM0.00379873 1126.06C0.00379873 1126.06 0.00379873 1126.06 0.00379873 1126.08C-0.0706744 1124.45 0.958807 1123.07 2.3184 1122.97C3.66542 1122.88 4.81798 1124.11 4.90192 1125.74C4.9764 1127.35 3.94691 1128.73 2.60004 1128.83C2.55199 1128.83 2.50169 1128.83 2.45364 1128.83C1.16753 1128.83 0.090001 1127.63 0.00379873 1126.06ZM173.856 1134.57C172.509 1134.39 171.542 1132.94 171.701 1131.33C171.848 1129.71 173.062 1128.57 174.407 1128.75C175.755 1128.92 176.723 1130.39 176.564 1131.99C176.429 1133.48 175.363 1134.6 174.139 1134.6C174.04 1134.6 173.955 1134.58 173.856 1134.57ZM1.16753 1138.1C0.933933 1136.51 1.82832 1134.99 3.16304 1134.71C4.49889 1134.44 5.76027 1135.51 5.99203 1137.11C6.22563 1138.71 5.33138 1140.21 3.99652 1140.5C3.84856 1140.52 3.71502 1140.54 3.57978 1140.54C2.40404 1140.54 1.36353 1139.53 1.16753 1138.1ZM171.909 1146.13C170.6 1145.76 169.778 1144.19 170.084 1142.61C170.391 1141.04 171.701 1140.05 173.024 1140.42C174.335 1140.77 175.155 1142.36 174.849 1143.94C174.592 1145.29 173.587 1146.2 172.474 1146.2C172.289 1146.2 172.105 1146.18 171.909 1146.13ZM3.45839 1149.91C3.0774 1148.35 3.81281 1146.73 5.10994 1146.27C6.40891 1145.8 7.7685 1146.7 8.15981 1148.25C8.53966 1149.81 7.79281 1151.43 6.49441 1151.89C6.26251 1151.98 6.02906 1152.01 5.80988 1152.01C4.74295 1152.01 3.77578 1151.19 3.45839 1149.91ZM168.872 1157.35C167.598 1156.8 166.937 1155.13 167.39 1153.59C167.844 1152.06 169.251 1151.27 170.525 1151.82C171.799 1152.36 172.461 1154.05 172.007 1155.57C171.653 1156.77 170.708 1157.52 169.705 1157.52C169.424 1157.52 169.154 1157.46 168.872 1157.35ZM6.86267 1161.32C6.33542 1159.82 6.9233 1158.11 8.15981 1157.46C9.41073 1156.85 10.8427 1157.54 11.3808 1159.03C11.9086 1160.51 11.3202 1162.24 10.0715 1162.87C9.76514 1163.04 9.4339 1163.11 9.11481 1163.11C8.17252 1163.11 7.26726 1162.43 6.86267 1161.32ZM164.781 1168.07C163.57 1167.35 163.067 1165.6 163.666 1164.14C164.266 1162.68 165.737 1162.1 166.949 1162.8C168.162 1163.52 168.663 1165.28 168.064 1166.73C167.635 1167.77 166.766 1168.37 165.859 1168.37C165.503 1168.37 165.136 1168.27 164.781 1168.07ZM11.3449 1172.17C10.6704 1170.77 11.0872 1168.98 12.2629 1168.18C13.4388 1167.38 14.9336 1167.88 15.6066 1169.28C16.2678 1170.69 15.8527 1172.48 14.689 1173.27C14.2954 1173.54 13.8804 1173.67 13.4757 1173.67C12.619 1173.67 11.7975 1173.13 11.3449 1172.17ZM159.686 1178.16C158.547 1177.28 158.229 1175.47 158.963 1174.11C159.686 1172.75 161.205 1172.35 162.344 1173.23C163.482 1174.11 163.814 1175.93 163.078 1177.28C162.614 1178.16 161.817 1178.63 161.009 1178.63C160.557 1178.63 160.103 1178.48 159.686 1178.16ZM16.8319 1182.35C16.036 1181.05 16.2678 1179.21 17.358 1178.26C18.461 1177.31 19.9928 1177.59 20.7877 1178.9C21.5836 1180.21 21.338 1182.04 20.2489 1183C19.8073 1183.38 19.3049 1183.55 18.8032 1183.55C18.0564 1183.55 17.3084 1183.14 16.8319 1182.35ZM153.673 1187.5C152.631 1186.47 152.472 1184.63 153.33 1183.36C154.188 1182.12 155.731 1181.93 156.784 1182.95C157.824 1183.98 157.984 1185.83 157.127 1187.09C156.636 1187.79 155.939 1188.16 155.229 1188.16C154.689 1188.16 154.138 1187.94 153.673 1187.5ZM23.237 1191.72C22.319 1190.54 22.3924 1188.67 23.3844 1187.57C24.3752 1186.49 25.9308 1186.56 26.8372 1187.76C27.7563 1188.95 27.6955 1190.8 26.7036 1191.9C26.2261 1192.41 25.6382 1192.68 25.0382 1192.68C24.3752 1192.68 23.7267 1192.35 23.237 1191.72ZM146.814 1195.95C145.87 1194.79 145.895 1192.93 146.863 1191.8C147.843 1190.67 149.387 1190.7 150.33 1191.85C151.272 1193.02 151.249 1194.88 150.28 1196.01C149.802 1196.56 149.19 1196.84 148.578 1196.84C147.941 1196.84 147.305 1196.54 146.814 1195.95ZM30.4998 1200.17C29.4703 1199.1 29.3616 1197.25 30.2547 1196.02C31.1362 1194.8 32.6808 1194.67 33.7086 1195.73C34.7255 1196.78 34.8348 1198.65 33.9544 1199.86C33.4647 1200.54 32.7895 1200.88 32.104 1200.88C31.5283 1200.88 30.9651 1200.64 30.4998 1200.17ZM139.209 1203.41C138.376 1202.14 138.572 1200.29 139.65 1199.31C140.715 1198.31 142.258 1198.54 143.079 1199.84C143.911 1201.11 143.716 1202.96 142.637 1203.94C142.197 1204.37 141.67 1204.56 141.144 1204.56C140.408 1204.56 139.687 1204.16 139.209 1203.41ZM38.5101 1207.56C37.3961 1206.65 37.1129 1204.82 37.8719 1203.49C38.6326 1202.15 40.1628 1201.81 41.2784 1202.72C42.3919 1203.63 42.6745 1205.47 41.9144 1206.8C41.4369 1207.62 40.6779 1208.08 39.894 1208.08C39.4165 1208.08 38.939 1207.92 38.5101 1207.56ZM130.929 1209.81C130.231 1208.41 130.612 1206.61 131.763 1205.78C132.926 1204.94 134.433 1205.38 135.13 1206.76C135.828 1208.15 135.448 1209.95 134.298 1210.79C133.906 1211.08 133.464 1211.22 133.036 1211.22C132.203 1211.22 131.396 1210.72 130.929 1209.81ZM47.1805 1213.83C45.9799 1213.06 45.5272 1211.29 46.1527 1209.87C46.7886 1208.43 48.2707 1207.87 49.4587 1208.64C50.6593 1209.4 51.1119 1211.17 50.4882 1212.6C50.0466 1213.59 49.1898 1214.16 48.3204 1214.16C47.9268 1214.16 47.5366 1214.06 47.1805 1213.83ZM122.111 1215.02C121.548 1213.53 122.087 1211.8 123.324 1211.13C124.548 1210.45 126.005 1211.1 126.569 1212.56C127.133 1214.05 126.582 1215.78 125.356 1216.47C125.025 1216.64 124.683 1216.73 124.341 1216.73C123.409 1216.73 122.527 1216.09 122.111 1215.02ZM56.3798 1218.86C55.1295 1218.27 54.5041 1216.57 54.9832 1215.06C55.4855 1213.55 56.8932 1212.8 58.1667 1213.39H58.1545C59.4159 1213.97 60.0407 1215.67 59.5511 1217.19C59.184 1218.34 58.2522 1219.06 57.2724 1219.06C56.9787 1219.06 56.6724 1218.99 56.3798 1218.86ZM112.84 1218.97C112.423 1217.44 113.133 1215.78 114.407 1215.28H114.42C115.706 1214.78 117.077 1215.63 117.506 1217.17C117.923 1218.71 117.213 1220.37 115.925 1220.87C115.681 1220.95 115.424 1221 115.166 1221C114.138 1221 113.184 1220.22 112.84 1218.97ZM66.0179 1222.6C64.7069 1222.19 63.923 1220.59 64.2664 1219.02C64.6087 1217.45 65.9445 1216.51 67.2545 1216.92C68.5655 1217.33 69.3493 1218.93 69.0054 1220.5C68.7118 1221.82 67.7192 1222.7 66.6417 1222.7C66.4347 1222.7 66.226 1222.66 66.0179 1222.6ZM103.25 1221.65C102.993 1220.06 103.85 1218.5 105.172 1218.2C106.495 1217.87 107.794 1218.9 108.063 1220.49C108.32 1222.07 107.463 1223.62 106.141 1223.95C105.981 1223.98 105.822 1224 105.651 1224C104.511 1224 103.495 1223.04 103.25 1221.65ZM75.9376 1224.99C74.5907 1224.75 73.6606 1223.27 73.8565 1221.67C74.0508 1220.06 75.2891 1218.95 76.6238 1219.18C77.9591 1219.4 78.8892 1220.88 78.7059 1222.5C78.5348 1223.96 77.4816 1225.02 76.2809 1225.02C76.1711 1225.02 76.0481 1225 75.9376 1224.99ZM93.4768 1222.98C93.3658 1221.37 94.3583 1219.96 95.7051 1219.81C97.0532 1219.66 98.2406 1220.87 98.3632 1222.48C98.4735 1224.09 97.4689 1225.52 96.1219 1225.66C96.1219 1225.66 96.1219 1225.66 96.1219 1225.65C96.0613 1225.66 95.9866 1225.66 95.9139 1225.66C94.6519 1225.66 93.5871 1224.5 93.4768 1222.98ZM86.0174 1226C84.6577 1225.96 83.5923 1224.61 83.6426 1222.99C83.6785 1221.37 84.8056 1220.09 86.1527 1220.13C87.4995 1220.18 88.5649 1221.53 88.529 1223.15C88.4914 1224.74 87.4012 1226 86.0798 1226C86.0543 1226 86.0422 1226 86.0174 1226Z" fill="#E8E8E7"/>
<path d="M575.841 202.516H661.705V99.6894H575.841V202.516ZM663.203 204.308H574.346V97.8972H663.203V204.308Z" fill="#F0EE16"/>
<path d="M560.878 220.434H646.741V117.607H560.878V220.434ZM648.238 222.226H559.382V115.817H648.238V222.226Z" fill="#F0EE16"/>
<path d="M672.032 489.919V464.516H650.819V489.919H672.032ZM673.154 463.173V491.261H649.697V463.173H673.154Z" fill="#E8E8E7"/>
<path d="M649.697 463.174V437.771H628.484V463.174H649.697ZM650.819 436.427V464.518H627.362V436.427H650.819Z" fill="#E8E8E7"/>
<path d="M649.697 436.428V411.026H628.484V436.428H649.697ZM650.819 409.683V437.771H627.362V409.683H650.819Z" fill="#E8E8E7"/>
<path d="M627.361 463.174V437.771H606.151V463.174H627.361ZM628.483 436.427V464.518H605.029V436.427H628.483Z" fill="#E8E8E7"/>
<path d="M672.032 463.174V437.771H650.819V463.174H672.032ZM673.154 436.427V464.518H649.697V436.427H673.154Z" fill="#E8E8E7"/>
<path d="M672.032 436.428V411.026H650.819V436.428H672.032ZM673.154 409.683V437.771H649.697V409.683H673.154Z" fill="#E8E8E7"/>
<path d="M672.032 409.681V384.278H650.819V409.681H672.032ZM673.154 382.935V411.025H649.697V382.935H673.154Z" fill="#E8E8E7"/>
<path d="M649.697 489.919V464.516H628.484V489.919H649.697ZM650.819 463.173V491.261H627.362V463.173H650.819Z" fill="#E8E8E7"/>
<path d="M627.361 489.919V464.516H606.151V489.919H627.361ZM628.483 463.173V491.261H605.029V463.173H628.483Z" fill="#E8E8E7"/>
<path d="M605.03 489.919V464.516H583.817V489.919H605.03ZM606.152 463.173V491.261H582.693V463.173H606.152Z" fill="#E8E8E7"/>
<path d="M608.006 1156.86L638.015 1120.93L668.024 1156.86H676.036L638.015 1111.33L599.993 1156.86H608.006Z" fill="#333232"/>
<path d="M585.591 1116.59V1126.18L638.016 1063.4L690.44 1126.18V1116.59L638.016 1053.81L585.591 1116.59Z" fill="#333232"/>
<path d="M585.591 1145.35V1154.94L638.016 1092.16L690.44 1154.94V1145.35L638.016 1082.57L585.591 1145.35Z" fill="#333232"/>
<path d="M587.26 913.249L585.591 915.248V924.841L595.271 913.249H587.26Z" fill="#333232"/>
<path d="M611.278 913.248L585.591 944.009V953.602L619.29 913.248H611.278Z" fill="#333232"/>
<path d="M635.296 913.249L585.591 972.772V982.366L638.016 919.587L690.44 982.367V972.772L640.735 913.249H635.296Z" fill="#333232"/>
<path d="M656.74 913.25L690.44 953.605V944.01L664.753 913.25H656.74Z" fill="#333232"/>
<path d="M585.591 1059.06V1068.65L638.016 1005.88L690.44 1068.65V1059.06L638.016 996.28L585.591 1059.06Z" fill="#333232"/>
<path d="M585.591 1087.82V1097.42L638.016 1034.64L690.44 1097.42V1087.82L638.016 1025.04L585.591 1087.82Z" fill="#333232"/>
<path d="M585.591 1001.53V1011.13L638.016 948.35L690.44 1011.13V1001.54L638.016 938.757L585.591 1001.53Z" fill="#333232"/>
<path d="M585.591 1030.3V1039.89L638.016 977.112L690.44 1039.89V1030.3L638.016 967.517L585.591 1030.3Z" fill="#333232"/>
<path d="M456.314 1095.96H159.377V1069.8H456.314V1095.96Z" fill="#8E908F"/>
<path d="M37.894 909.216C41.8922 909.216 45.8899 910.7 49.6149 913.67C56.116 918.855 63.5726 918.855 70.0736 913.67C77.5219 907.732 86.0654 907.732 93.5137 913.67C100.015 918.853 107.473 918.853 113.973 913.67C114.591 913.177 115.426 913.379 115.839 914.118C116.249 914.86 116.083 915.858 115.464 916.35C108.015 922.292 99.4711 922.292 92.0234 916.35C85.5223 911.167 78.0657 911.167 71.5641 916.35C64.1163 922.292 55.5723 922.292 48.1229 916.35C41.6229 911.169 34.1658 911.167 27.6653 916.35C20.2165 922.292 11.6724 922.29 4.22466 916.35C3.60641 915.858 3.43909 914.86 3.85032 914.118C4.26268 913.379 5.09898 913.179 5.7161 913.67C12.216 918.853 19.6721 918.853 26.1737 913.67C29.8981 910.7 33.8963 909.216 37.894 909.216Z" fill="#F0EE16"/>
<path d="M37.894 934.663C41.8922 934.663 45.8899 936.149 49.6149 939.117C56.116 944.302 63.5726 944.302 70.0736 939.117C77.5219 933.177 86.0654 933.177 93.5137 939.117C100.015 944.301 107.473 944.301 113.973 939.117C114.591 938.625 115.426 938.825 115.839 939.564C116.249 940.307 116.083 941.305 115.464 941.798C108.015 947.739 99.4711 947.739 92.0234 941.798C85.5223 936.614 78.0657 936.614 71.5641 941.798C64.1163 947.739 55.5723 947.739 48.1229 941.798C41.6229 936.614 34.1658 936.614 27.6653 941.798C20.2165 947.739 11.6724 947.738 4.22466 941.798C3.60641 941.305 3.43909 940.307 3.85032 939.564C4.26268 938.826 5.09898 938.625 5.7161 939.117C12.216 944.299 19.6721 944.301 26.1737 939.117C29.8981 936.149 33.8963 934.663 37.894 934.663Z" fill="#F0EE16"/>
<path d="M37.894 960.109C41.8922 960.109 45.8899 961.593 49.6149 964.563C56.116 969.749 63.5726 969.749 70.0736 964.563C77.5219 958.623 86.0654 958.623 93.5137 964.563C100.015 969.747 107.473 969.747 113.973 964.563C114.591 964.071 115.426 964.27 115.839 965.01C116.249 965.751 116.083 966.751 115.464 967.246C108.015 973.184 99.4711 973.184 92.0234 967.246C85.5223 962.059 78.0657 962.061 71.5641 967.246C64.1163 973.184 55.5723 973.184 48.1229 967.246C41.6229 962.061 34.1658 962.061 27.6653 967.246C20.2165 973.184 11.6724 973.184 4.22466 967.246C3.60641 966.751 3.43909 965.751 3.85032 965.01C4.26268 964.27 5.09898 964.073 5.7161 964.563C12.216 969.745 19.6721 969.747 26.1737 964.563C29.8981 961.593 33.8963 960.109 37.894 960.109Z" fill="#F0EE16"/>
<path d="M37.894 985.554C41.8922 985.554 45.8899 987.04 49.6149 990.01C56.116 995.194 63.5726 995.194 70.0736 990.01C77.5219 984.07 86.0654 984.07 93.5137 990.01C100.015 995.194 107.473 995.194 113.973 990.01C114.591 989.518 115.426 989.717 115.839 990.456C116.249 991.198 116.083 992.198 115.464 992.692C108.015 998.63 99.4711 998.63 92.0234 992.692C85.5223 987.506 78.0657 987.506 71.5641 992.692C64.1163 998.63 55.5723 998.63 48.1229 992.692C41.6229 987.507 34.1658 987.506 27.6653 992.692C20.2165 998.63 11.6724 998.629 4.22466 992.692C3.60641 992.198 3.43909 991.198 3.85032 990.456C4.26268 989.717 5.09898 989.519 5.7161 990.01C12.216 995.192 19.6721 995.194 26.1737 990.01C29.8981 987.04 33.8963 985.554 37.894 985.554Z" fill="#F0EE16"/>
<path d="M522.88 220.587C514.483 220.587 507.652 212.405 507.652 202.349C507.652 192.294 514.483 184.115 522.88 184.115C531.277 184.115 538.107 192.294 538.107 202.349C538.107 212.405 531.277 220.587 522.88 220.587ZM522.88 180.495C512.817 180.495 504.631 190.298 504.631 202.349C504.631 214.402 512.817 224.205 522.88 224.205C532.943 224.205 541.13 214.402 541.13 202.349C541.13 190.298 532.943 180.495 522.88 180.495Z" fill="#F5F5F4"/>
<path d="M83.2965 340.063C74.9003 340.063 68.0691 331.883 68.0691 321.827C68.0691 311.771 74.9003 303.593 83.2965 303.593C91.6941 303.593 98.5236 311.771 98.5236 321.827C98.5236 331.883 91.6941 340.063 83.2965 340.063ZM83.2965 299.973C73.2332 299.973 65.0469 309.776 65.0469 321.827C65.0469 333.878 73.2332 343.683 83.2965 343.683C93.3595 343.683 101.546 333.878 101.546 321.827C101.546 309.776 93.3595 299.973 83.2965 299.973Z" fill="#F5F5F4"/>
<path d="M429.046 20.1825C428.31 19.4718 427.566 18.7779 426.815 18.0993L302.197 167.333C302.764 168.232 303.342 169.124 303.935 170.004L429.046 20.1825Z" fill="#8E908F"/>
<path d="M398.601 1.02367C397.567 0.658142 396.528 0.32132 395.487 -0.000213623L287.081 129.818C287.348 131.067 287.629 132.311 287.936 133.55L398.601 1.02367Z" fill="#8E908F"/>
<path d="M419.985 12.4913C419.162 11.882 418.332 11.2931 417.497 10.7194L296.032 156.176C296.511 157.175 297.004 158.17 297.513 159.155L419.985 12.4913Z" fill="#8E908F"/>
<path d="M409.881 6.05615C408.964 5.55862 408.038 5.07802 407.11 4.62109L290.941 143.735C291.323 144.849 291.724 145.954 292.14 147.054L409.881 6.05615Z" fill="#8E908F"/>
<path d="M436.154 27.8318C435.822 27.4341 435.484 27.0483 435.149 26.6574L309.342 177.313C309.668 177.714 309.99 178.12 310.323 178.516C310.655 178.914 310.991 179.301 311.329 179.691L437.133 29.035C436.81 28.6339 436.486 28.2278 436.154 27.8318Z" fill="#8E908F"/>
<path d="M462.003 110.485C462.098 108.828 462.161 107.168 462.191 105.506L375.185 209.699C376.572 209.662 377.959 209.585 379.343 209.472L462.003 110.485Z" fill="#8E908F"/>
<path d="M461.744 92.2568C461.622 90.8404 461.482 89.4274 461.314 88.0177L360.583 208.647C361.76 208.848 362.94 209.016 364.122 209.16L461.744 92.2568Z" fill="#8E908F"/>
<path d="M458.665 133.021C459.179 130.903 459.637 128.767 460.04 126.621L392.816 207.123C394.608 206.641 396.392 206.092 398.161 205.475L458.665 133.021Z" fill="#8E908F"/>
<path d="M418.431 194.987C424.755 190.516 430.718 185.024 436.153 178.516C441.587 172.009 446.172 164.867 449.907 157.293L418.431 194.987Z" fill="#8E908F"/>
<path d="M450.443 50.1741C449.963 49.174 449.473 48.1789 448.962 47.194L326.49 193.858C327.313 194.467 328.144 195.056 328.98 195.629L450.443 50.1741Z" fill="#8E908F"/>
<path d="M444.281 39.015C443.713 38.1164 443.135 37.2262 442.54 36.3445L317.433 186.166C318.169 186.878 318.912 187.57 319.663 188.249L444.281 39.015Z" fill="#8E908F"/>
<path d="M459.396 76.5306C459.128 75.2817 458.847 74.0379 458.541 72.8008L347.876 205.325C348.908 205.691 349.948 206.029 350.989 206.349L459.396 76.5306Z" fill="#8E908F"/>
<path d="M455.536 62.6132C455.153 61.4997 454.753 60.3947 454.338 59.2947L336.597 200.292C337.514 200.79 338.438 201.271 339.368 201.728L455.536 62.6132Z" fill="#8E908F"/>
<path d="M314.886 936.951V951.791H302.495V936.951H314.886Z" fill="#8E908F"/>
<path d="M347.142 937.47H335.617V951.272H347.142V937.47ZM334.752 936.434H348.01V952.309H334.752V936.434Z" fill="#8E908F"/>
<path d="M83.0727 394.555V410.757H69.543V394.555H83.0727Z" fill="#8E908F"/>
<path d="M118.292 395.122H105.708V410.192H118.292V395.122ZM104.762 393.99H119.237V411.324H104.762V393.99Z" fill="#8E908F"/>
<path d="M175.363 193.133L175.374 193.126V182.812L175.363 182.82V193.126V193.133Z" fill="#CBE21C"/>
<path d="M175.375 232.567L175.371 232.565V232.567L165.458 225.715L161.11 222.709V222.701L161.104 222.709L153.656 227.857V227.862L175.375 242.879L197.094 227.862L189.635 222.709L175.375 232.567Z" fill="#8E908F"/>
<path d="M189.634 202.984V222.71L197.093 227.863V197.83L175.374 182.812V193.127L189.634 202.984Z" fill="#D8D30F"/>
<path d="M153.656 227.857L161.103 222.71L161.109 222.701V202.984L175.364 193.133V193.127V182.821V182.812L153.645 197.83V227.863L153.656 227.857Z" fill="#F0EE16"/>
<path d="M166.064 219.282V206.409L175.37 212.847V225.715H175.373V212.847L184.678 206.409L175.373 199.979L175.366 199.982L166.064 206.409V219.277V219.282Z" fill="#D8D30F"/>
<path d="M175.373 212.847V225.715L184.678 219.282V206.409L175.373 212.847Z" fill="#8E908F"/>
<path d="M166.064 206.409V219.282L168.902 221.244L175.37 225.715V212.847L166.064 206.409Z" fill="#F0EE16"/>
<path d="M425.708 163.394L415.66 171.032L425.708 178.669V163.394Z" fill="#F0EE16"/>
<path d="M477.642 163.394L467.595 171.032L477.642 178.669V163.394Z" fill="#F0EE16"/>
<path d="M303.518 163.394L293.472 171.032L303.518 178.669V163.394Z" fill="#F0EE16"/>
<path d="M355.453 163.394L345.407 171.032L355.453 178.669V163.394Z" fill="#F0EE16"/>
<path d="M377.463 163.394L367.414 171.032L377.463 178.669V163.394Z" fill="#F0EE16"/>
</svg>
